<svg width="138" height="173" viewBox="0 0 138 173" fill="none" xmlns="http://www.w3.org/2000/svg">
<mask id="mask0_11_918" style="mask-type:luminance" maskUnits="userSpaceOnUse" x="0" y="0" width="138" height="149">
<path d="M0.510254 0.567749H137.781V149H0.510254V0.567749Z" fill="white"/>
</mask>
<g mask="url(#mask0_11_918)">
<path d="M135.812 133.802L119.807 120.573C116.963 118.224 115.323 114.734 115.323 111.057V63.8542C114.609 63.9011 113.906 63.9323 113.177 63.9323C96.4217 63.9323 82.8384 50.349 82.8384 33.5834C82.8384 27.849 84.4217 22.4896 87.1873 17.9167C85.3592 17.1355 83.479 16.4636 81.5311 15.9271C81.703 15.0886 81.7915 14.2188 81.7915 13.3282C81.7915 6.28129 76.0936 0.567749 69.0467 0.567749C61.9998 0.567749 56.2863 6.28129 56.2863 13.3282C56.2863 14.2188 56.3748 15.0886 56.5519 15.9271C37.0571 21.375 22.755 39.2657 22.755 60.5V111.057C22.755 114.734 21.1144 118.224 18.2759 120.573L2.27067 133.802C1.15609 134.729 0.510254 136.104 0.510254 137.547V143.458C0.510254 146.141 2.67692 148.313 5.36442 148.313H132.719C135.406 148.313 137.573 146.141 137.573 143.458V137.547C137.573 136.104 136.922 134.729 135.812 133.802Z" fill="#0CC0DF"/>
</g>
<mask id="mask1_11_918" style="mask-type:luminance" maskUnits="userSpaceOnUse" x="49" y="153" width="41" height="20">
<path d="M49.3335 153H89.3335V172.568H49.3335V153Z" fill="white"/>
</mask>
<g mask="url(#mask1_11_918)">
<path d="M69.047 173.036C79.5835 173.036 88.1356 164.495 88.1356 153.948H49.9585C49.9585 164.495 58.5002 173.036 69.047 173.036Z" fill="#0CC0DF"/>
</g>
<mask id="mask2_11_918" style="mask-type:luminance" maskUnits="userSpaceOnUse" x="88" y="7" width="50" height="52">
<path d="M88 7.66669H137.781V58.3334H88V7.66669Z" fill="white"/>
</mask>
<g mask="url(#mask2_11_918)">
<path d="M103.974 24.125L110.568 19.0625C111.396 18.448 112.099 17.974 113.198 17.974H116.5C117.162 17.974 117.604 18.4011 117.604 19.0625V47.6511C117.604 48.3125 117.162 48.7553 116.5 48.7553H112.318C111.672 48.7553 111.229 48.3125 111.229 47.6511V25.2292H111.011L106.604 28.0782C106.167 28.3438 105.547 28.2552 105.287 27.8594L103.755 25.448C103.448 24.9636 103.578 24.4375 103.974 24.125ZM88.5835 33.5834C88.5835 47.1667 99.5939 58.1771 113.177 58.1771C126.761 58.1771 137.781 47.1667 137.781 33.5834C137.781 20 126.761 8.98962 113.177 8.98962C99.5939 8.98962 88.5835 20 88.5835 33.5834Z" fill="#0CC0DF"/>
</g>
</svg>
