<svg width="149" height="149" viewBox="0 0 149 149" fill="none" xmlns="http://www.w3.org/2000/svg">
<path d="M61.4741 1.45312C59.1929 1.85937 56.9325 2.36979 54.6981 2.98958V49.6563L16.9689 27.7969C15.2137 29.974 13.5575 32.2604 12.0314 34.6771C11.4272 35.625 10.8595 36.5885 10.3075 37.5573L51.3595 61.3333H38.7033L7.4012 43.2031C6.75537 44.5885 6.1512 45.9844 5.60433 47.3906L29.6668 61.3333H1.67725C1.40641 62.8333 1.17725 64.3333 1.00537 65.8385H61.4741V1.45312Z" fill="white"/>
<mask id="mask0_11_920" style="mask-type:luminance" maskUnits="userSpaceOnUse" x="86" y="81" width="63" height="68">
<path d="M86 81.6667H148.349V148.021H86V81.6667Z" fill="white"/>
</mask>
<g mask="url(#mask0_11_920)">
<path d="M87.229 147.323C89.5103 146.917 91.7707 146.406 94.005 145.787V99.6511L131.437 121.333C133.297 119.052 135.057 116.651 136.667 114.099C137.187 113.281 137.672 112.448 138.156 111.62L96.4269 87.4428H109.078L141.104 105.99C141.755 104.609 142.364 103.219 142.922 101.813L118.12 87.4428H147.021C147.292 85.948 147.521 84.448 147.698 82.948H87.229V147.323Z" fill="white"/>
</g>
<mask id="mask1_11_920" style="mask-type:luminance" maskUnits="userSpaceOnUse" x="0" y="81" width="62" height="68">
<path d="M0.666504 81.6667H61.9998V148.021H0.666504V81.6667Z" fill="white"/>
</mask>
<g mask="url(#mask1_11_920)">
<path d="M1.02588 82.948C1.20296 84.4532 1.42171 85.9532 1.68734 87.4428H27.8644L5.27588 100.531C6.65609 104.214 8.33838 107.792 10.3019 111.229L51.3592 87.4428H54.6978V92.8438L13.6665 116.609C14.5259 117.854 15.4425 119.068 16.3853 120.266L54.6978 98.0782V145.802C56.9373 146.427 59.203 146.932 61.4738 147.333V82.948H1.02588Z" fill="white"/>
</g>
<mask id="mask2_11_920" style="mask-type:luminance" maskUnits="userSpaceOnUse" x="86" y="0" width="63" height="67">
<path d="M86 0.333374H148.349V67H86V0.333374Z" fill="white"/>
</mask>
<g mask="url(#mask2_11_920)">
<path d="M147.672 65.8386C147.495 64.3282 147.276 62.8282 147.01 61.3334H119.932L143.265 47.8178C141.859 44.1511 140.151 40.5834 138.167 37.1615L96.4373 61.3334H94.005V55.4167L134.765 31.8021C133.896 30.5573 132.974 29.3438 132.026 28.1511L94.005 50.1771V2.974C91.7603 2.35421 89.4998 1.84379 87.229 1.44275V65.8386H147.672Z" fill="white"/>
</g>
<path d="M5.60433 47.3906C3.81787 51.9531 2.51579 56.6198 1.67725 61.3333H29.6668L5.60433 47.3906Z" fill="#202149"/>
<path d="M1.6875 87.4427C2.48437 91.9011 3.68229 96.2865 5.27604 100.531L27.8646 87.4427H1.6875Z" fill="#202149"/>
<path d="M16.3853 120.266C21.4061 126.651 27.5467 132.318 34.7707 136.917C41.104 140.953 47.8228 143.896 54.6978 145.802V98.0781L16.3853 120.266Z" fill="#202149"/>
<path d="M94.0054 145.787C108.349 141.818 121.526 133.495 131.438 121.333L94.0054 99.6511V145.787Z" fill="#202149"/>
<path d="M132.026 28.1511C127.063 21.9167 121.016 16.375 113.927 11.8594C107.594 7.82296 100.88 4.88025 94.0054 2.974V50.1771L132.026 28.1511Z" fill="#202149"/>
<path d="M54.6979 2.98962C40.2135 7.00004 26.9115 15.4375 16.9688 27.7969L54.6979 49.6563V2.98962Z" fill="#202149"/>
<path d="M142.922 101.813C144.797 97.1146 146.156 92.3021 147.021 87.4427H118.12L142.922 101.813Z" fill="#202149"/>
<path d="M147.01 61.3334C146.187 56.7292 144.937 52.2032 143.265 47.8177L119.932 61.3334H147.01Z" fill="#202149"/>
<path d="M96.4272 87.4427L138.156 111.62C139.229 109.771 140.203 107.891 141.104 105.99L109.078 87.4427H96.4272Z" fill="#E52C33"/>
<path d="M94.0054 61.3334H96.4377L138.167 37.1615C137.11 35.3334 135.985 33.5417 134.766 31.8021L94.0054 55.4167V61.3334Z" fill="#E52C33"/>
<path d="M51.3592 61.3334L10.3071 37.5574C9.24984 39.4115 8.2863 41.297 7.40088 43.2032L38.703 61.3334H51.3592Z" fill="#E52C33"/>
<path d="M54.6981 87.4427H51.3595L10.3022 111.229C11.3491 113.063 12.4637 114.859 13.6668 116.609L54.6981 92.8438V87.4427Z" fill="#E52C33"/>
<mask id="mask3_11_920" style="mask-type:luminance" maskUnits="userSpaceOnUse" x="0" y="0" width="149" height="149">
<path d="M0.349121 0.020874H148.349V148.021H0.349121V0.020874Z" fill="white"/>
</mask>
<g mask="url(#mask3_11_920)">
<path d="M147.672 65.8385H87.2293V1.44271C78.646 -0.0781246 69.922 -0.0520826 61.4741 1.45313V65.8385H1.00536C0.343906 71.5521 0.369949 77.2917 1.0262 82.9479H61.4741V147.333C70.0575 148.854 78.7762 148.828 87.2293 147.323V82.9479H147.698C148.354 77.2344 148.333 71.4948 147.672 65.8385Z" fill="#E52C33"/>
</g>
</svg>
