<svg width="103" height="103" viewBox="0 0 103 103" fill="none" xmlns="http://www.w3.org/2000/svg">
<mask id="mask0_11_916" style="mask-type:luminance" maskUnits="userSpaceOnUse" x="0" y="0" width="103" height="103">
<path d="M0.234375 0.583374H102.125V102.469H0.234375V0.583374Z" fill="white"/>
</mask>
<g mask="url(#mask0_11_916)">
<mask id="mask1_11_916" style="mask-type:luminance" maskUnits="userSpaceOnUse" x="0" y="0" width="103" height="103">
<path d="M51.1771 0.583374C23.0417 0.583374 0.234375 23.3907 0.234375 51.5261C0.234375 79.6615 23.0417 102.469 51.1771 102.469C79.3125 102.469 102.125 79.6615 102.125 51.5261C102.125 23.3907 79.3125 0.583374 51.1771 0.583374Z" fill="white"/>
</mask>
<g mask="url(#mask1_11_916)">
<path d="M0.234375 0.583374H102.125V102.469H0.234375V0.583374Z" fill="#0CC0DF"/>
</g>
</g>
<mask id="mask2_11_916" style="mask-type:luminance" maskUnits="userSpaceOnUse" x="27" y="27" width="49" height="50">
<path d="M27 27.3334H75.849V76.198H27V27.3334Z" fill="white"/>
</mask>
<g mask="url(#mask2_11_916)">
<path d="M74.578 70.3646L70.0155 74.9219C69.0884 75.849 67.5832 75.849 66.6561 74.9219L51.6092 59.8751C51.3696 59.6355 50.979 59.6355 50.7394 59.8751L35.6925 74.9219C34.7655 75.849 33.2655 75.849 32.3332 74.9219L27.7759 70.3646C26.8488 69.4376 26.8488 67.9324 27.7759 67.0053L42.8228 51.9584C43.0623 51.7188 43.0623 51.3282 42.8228 51.0886L27.7759 36.0417C26.8488 35.1146 26.8488 33.6094 27.7759 32.6824L32.3332 28.1251C33.2655 27.1928 34.7655 27.1928 35.6925 28.1251L50.7394 43.1667C50.979 43.4115 51.3696 43.4115 51.6092 43.1667L66.6561 28.1251C67.5832 27.1928 69.0884 27.1928 70.0155 28.1251L74.578 32.6824C75.505 33.6094 75.505 35.1146 74.578 36.0417L59.5311 51.0886C59.2915 51.3282 59.2915 51.7188 59.5311 51.9584L74.578 67.0053C75.505 67.9324 75.505 69.4376 74.578 70.3646Z" fill="white"/>
</g>
</svg>
