<svg xmlns="http://www.w3.org/2000/svg" xmlns:xlink="http://www.w3.org/1999/xlink" width="1920" zoomAndPan="magnify" viewBox="0 0 1440 809.999993" height="1080" preserveAspectRatio="xMidYMid meet" version="1.0"><defs><clipPath id="b5c87beec4"><path d="M 435 484 L 1072 484 L 1072 762.886719 L 435 762.886719 Z M 435 484 " clip-rule="nonzero"/></clipPath><clipPath id="18dc3df85b"><path d="M 714 47.386719 L 944 47.386719 L 944 139 L 714 139 Z M 714 47.386719 " clip-rule="nonzero"/></clipPath><clipPath id="ca6c9cff1c"><path d="M 69.550781 46.65625 L 312.550781 46.65625 L 312.550781 289.65625 L 69.550781 289.65625 Z M 69.550781 46.65625 " clip-rule="nonzero"/></clipPath></defs><rect x="-144" width="1728" fill="#ffffff" y="-80.999999" height="971.999992" fill-opacity="1"/><rect x="-144" width="1728" fill="#ffffff" y="-80.999999" height="971.999992" fill-opacity="1"/><path fill="#005082" d="M 457.914062 437.90625 L 467.199219 447.1875 C 465.933594 448.742188 464.78125 450.375 463.746094 452.089844 C 462.710938 453.808594 461.804688 455.585938 461.019531 457.429688 C 460.234375 459.277344 459.585938 461.164062 459.070312 463.101562 C 458.554688 465.035156 458.175781 467 457.933594 468.988281 C 457.695312 470.976562 457.597656 472.972656 457.636719 474.976562 C 457.679688 476.980469 457.863281 478.972656 458.1875 480.949219 C 458.507812 482.925781 458.96875 484.871094 459.566406 486.78125 C 460.164062 488.695312 460.894531 490.554688 461.753906 492.367188 C 462.613281 494.175781 463.597656 495.914062 464.703125 497.585938 C 465.808594 499.257812 467.027344 500.839844 468.355469 502.339844 C 469.6875 503.839844 471.113281 505.238281 472.640625 506.535156 C 474.167969 507.832031 475.777344 509.015625 477.472656 510.085938 C 479.167969 511.15625 480.929688 512.101562 482.753906 512.921875 C 484.582031 513.742188 486.460938 514.433594 488.382812 514.988281 C 490.308594 515.542969 492.261719 515.964844 494.246094 516.242188 C 496.230469 516.523438 498.226562 516.664062 500.226562 516.664062 C 500.796875 516.664062 501.363281 516.605469 501.929688 516.582031 C 501.910156 517.140625 501.847656 517.699219 501.847656 518.257812 C 501.847656 519.652344 501.910156 521.046875 502.046875 522.433594 C 502.179688 523.820312 502.382812 525.199219 502.652344 526.570312 C 502.925781 527.9375 503.261719 529.289062 503.664062 530.625 C 504.066406 531.960938 504.535156 533.273438 505.066406 534.5625 C 505.601562 535.851562 506.195312 537.109375 506.851562 538.34375 C 507.507812 539.574219 508.222656 540.769531 508.996094 541.929688 C 509.773438 543.089844 510.601562 544.207031 511.484375 545.285156 C 512.371094 546.367188 513.304688 547.398438 514.292969 548.386719 C 515.277344 549.371094 516.308594 550.308594 517.386719 551.191406 C 518.464844 552.078125 519.585938 552.90625 520.746094 553.683594 C 521.90625 554.457031 523.101562 555.171875 524.332031 555.832031 C 525.5625 556.488281 526.820312 557.082031 528.109375 557.617188 C 529.398438 558.148438 530.710938 558.617188 532.046875 559.023438 C 533.382812 559.425781 534.734375 559.761719 536.101562 560.035156 C 537.46875 560.304688 538.847656 560.507812 540.238281 560.644531 C 541.625 560.777344 543.015625 560.847656 544.410156 560.84375 C 544.980469 560.84375 545.546875 560.785156 546.113281 560.761719 C 546.09375 561.320312 546.03125 561.878906 546.03125 562.4375 C 546.027344 563.835938 546.09375 565.226562 546.226562 566.613281 C 546.363281 568.003906 546.5625 569.382812 546.832031 570.75 C 547.101562 572.121094 547.4375 573.472656 547.84375 574.808594 C 548.246094 576.144531 548.710938 577.457031 549.246094 578.746094 C 549.777344 580.035156 550.371094 581.296875 551.027344 582.527344 C 551.683594 583.757812 552.398438 584.953125 553.171875 586.113281 C 553.949219 587.273438 554.777344 588.394531 555.660156 589.472656 C 556.546875 590.550781 557.480469 591.585938 558.46875 592.570312 C 559.453125 593.558594 560.484375 594.492188 561.566406 595.378906 C 562.644531 596.261719 563.761719 597.09375 564.921875 597.867188 C 566.082031 598.644531 567.277344 599.359375 568.507812 600.015625 C 569.738281 600.671875 571 601.265625 572.289062 601.800781 C 573.578125 602.332031 574.890625 602.800781 576.226562 603.203125 C 577.5625 603.609375 578.914062 603.945312 580.28125 604.214844 C 581.652344 604.484375 583.03125 604.6875 584.417969 604.824219 C 585.808594 604.957031 587.199219 605.023438 588.59375 605.019531 C 589.152344 605.019531 589.710938 604.960938 590.269531 604.941406 C 590.191406 606.988281 590.253906 609.03125 590.46875 611.070312 C 590.683594 613.109375 591.042969 615.125 591.546875 617.113281 C 592.050781 619.097656 592.695312 621.039062 593.480469 622.933594 C 594.265625 624.828125 595.183594 626.65625 596.234375 628.417969 C 597.28125 630.179688 598.453125 631.855469 599.746094 633.449219 C 601.035156 635.039062 602.4375 636.53125 603.945312 637.921875 C 605.449219 639.3125 607.050781 640.585938 608.742188 641.746094 C 610.433594 642.90625 612.199219 643.9375 614.039062 644.839844 C 615.878906 645.742188 617.777344 646.511719 619.726562 647.140625 C 621.679688 647.769531 623.664062 648.257812 625.6875 648.597656 C 627.707031 648.941406 629.742188 649.136719 631.792969 649.1875 C 633.84375 649.234375 635.886719 649.136719 637.921875 648.890625 C 639.957031 648.640625 641.964844 648.25 643.941406 647.714844 C 645.921875 647.175781 647.851562 646.5 649.734375 645.683594 C 651.613281 644.871094 653.425781 643.921875 655.171875 642.84375 C 656.914062 641.765625 658.574219 640.570312 660.144531 639.253906 C 663.964844 642.015625 668.113281 644.125 672.59375 645.582031 C 677.074219 647.039062 681.671875 647.777344 686.382812 647.789062 C 688.757812 647.808594 691.117188 647.621094 693.460938 647.234375 C 695.804688 646.847656 698.097656 646.261719 700.339844 645.476562 C 702.585938 644.695312 704.746094 643.726562 706.820312 642.574219 C 708.898438 641.417969 710.859375 640.09375 712.707031 638.605469 C 715.015625 636.71875 717.101562 634.613281 718.96875 632.292969 C 720.835938 629.96875 722.441406 627.476562 723.785156 624.820312 C 725.128906 622.160156 726.183594 619.390625 726.949219 616.511719 C 727.714844 613.632812 728.171875 610.703125 728.324219 607.726562 C 728.335938 607.550781 728.339844 607.367188 728.347656 607.191406 C 731.214844 607.621094 734.097656 607.753906 736.996094 607.59375 C 739.890625 607.429688 742.738281 606.96875 745.542969 606.21875 C 748.34375 605.464844 751.039062 604.433594 753.625 603.125 C 756.214844 601.8125 758.640625 600.253906 760.910156 598.441406 C 763.214844 596.554688 765.300781 594.453125 767.167969 592.128906 C 769.035156 589.804688 770.640625 587.316406 771.984375 584.65625 C 773.328125 581.996094 774.386719 579.226562 775.148438 576.347656 C 775.914062 573.46875 776.371094 570.539062 776.523438 567.566406 C 776.535156 567.382812 776.542969 567.199219 776.546875 567.023438 C 779.414062 567.453125 782.296875 567.585938 785.195312 567.421875 C 788.089844 567.257812 790.941406 566.800781 793.742188 566.046875 C 796.542969 565.296875 799.238281 564.265625 801.828125 562.953125 C 804.414062 561.644531 806.84375 560.085938 809.109375 558.273438 C 811.417969 556.390625 813.503906 554.285156 815.367188 551.960938 C 817.234375 549.640625 818.839844 547.148438 820.183594 544.488281 C 821.53125 541.832031 822.585938 539.0625 823.347656 536.179688 C 824.113281 533.300781 824.570312 530.375 824.722656 527.398438 C 824.722656 527.347656 824.722656 527.296875 824.722656 527.25 C 827.332031 527.59375 829.945312 527.703125 832.574219 527.574219 C 835.550781 527.421875 838.476562 526.964844 841.355469 526.199219 C 844.238281 525.433594 847.007812 524.378906 849.667969 523.035156 C 852.324219 521.691406 854.816406 520.085938 857.140625 518.21875 C 859.464844 516.355469 861.570312 514.269531 863.457031 511.960938 C 877.089844 495.257812 875.347656 469.75 859.488281 453.902344 L 728.042969 322.460938 C 728.519531 322 728.953125 321.503906 729.34375 320.972656 C 729.730469 320.4375 730.074219 319.875 730.363281 319.28125 C 730.65625 318.6875 730.894531 318.074219 731.078125 317.441406 C 731.261719 316.804688 731.386719 316.160156 731.457031 315.503906 C 731.53125 314.847656 731.542969 314.1875 731.5 313.53125 C 731.457031 312.871094 731.355469 312.21875 731.195312 311.578125 C 731.039062 310.9375 730.828125 310.3125 730.5625 309.710938 C 730.292969 309.105469 729.976562 308.527344 729.609375 307.980469 C 729.242188 307.429688 728.832031 306.917969 728.375 306.4375 C 727.917969 305.960938 727.421875 305.527344 726.886719 305.136719 C 726.355469 304.746094 725.792969 304.40625 725.199219 304.113281 C 724.609375 303.820312 723.996094 303.582031 723.359375 303.398438 C 722.726562 303.214844 722.082031 303.085938 721.421875 303.011719 C 720.765625 302.941406 720.109375 302.925781 719.449219 302.96875 C 718.789062 303.011719 718.140625 303.109375 717.496094 303.265625 C 716.855469 303.425781 716.234375 303.636719 715.628906 303.902344 L 604.1875 352.621094 C 603.5 352.910156 602.800781 353.167969 602.089844 353.386719 C 601.378906 353.605469 600.65625 353.789062 599.929688 353.941406 C 599.199219 354.089844 598.460938 354.203125 597.722656 354.277344 C 596.980469 354.355469 596.238281 354.394531 595.492188 354.398438 C 594.746094 354.402344 594.003906 354.371094 593.261719 354.300781 C 592.519531 354.230469 591.785156 354.125 591.050781 353.984375 C 590.320312 353.839844 589.597656 353.664062 588.882812 353.449219 C 588.171875 353.238281 587.46875 352.992188 586.78125 352.707031 C 586.089844 352.425781 585.414062 352.113281 584.757812 351.761719 C 584.097656 351.414062 583.457031 351.035156 582.835938 350.625 C 582.214844 350.210938 581.617188 349.773438 581.039062 349.300781 C 580.460938 348.832031 579.90625 348.332031 579.378906 347.808594 C 578.851562 347.285156 578.347656 346.734375 577.871094 346.160156 C 577.398438 345.585938 576.953125 344.992188 576.535156 344.371094 C 576.121094 343.753906 575.734375 343.117188 575.382812 342.460938 C 575.027344 341.808594 574.707031 341.136719 574.417969 340.449219 C 574.132812 339.761719 573.878906 339.0625 573.660156 338.347656 C 573.441406 337.636719 573.257812 336.914062 573.109375 336.183594 C 572.960938 335.453125 572.851562 334.71875 572.777344 333.976562 C 572.699219 333.238281 572.660156 332.492188 572.660156 331.75 C 572.65625 331.003906 572.691406 330.261719 572.761719 329.519531 C 572.832031 328.777344 572.941406 328.039062 573.082031 327.308594 C 573.226562 326.578125 573.40625 325.855469 573.621094 325.140625 C 573.832031 324.429688 574.082031 323.726562 574.367188 323.039062 C 574.648438 322.347656 574.964844 321.675781 575.316406 321.019531 C 575.664062 320.359375 576.046875 319.722656 576.457031 319.101562 C 576.871094 318.480469 577.3125 317.882812 577.785156 317.304688 C 578.253906 316.726562 578.753906 316.175781 579.277344 315.648438 C 579.804688 315.117188 580.355469 314.617188 580.929688 314.144531 C 581.503906 313.671875 582.101562 313.226562 582.71875 312.8125 C 583.339844 312.394531 583.976562 312.011719 584.632812 311.660156 C 585.289062 311.308594 585.960938 310.988281 586.648438 310.703125 L 757.640625 236.914062 C 764.542969 235.039062 825.933594 219.226562 875.976562 234.25 C 877.429688 234.679688 878.910156 234.816406 880.417969 234.660156 C 881.925781 234.503906 883.34375 234.0625 884.679688 233.339844 L 951.542969 196.867188 C 952.207031 196.515625 952.824219 196.097656 953.40625 195.621094 C 953.984375 195.144531 954.511719 194.617188 954.984375 194.035156 C 955.460938 193.457031 955.871094 192.832031 956.222656 192.171875 C 956.574219 191.507812 956.859375 190.816406 957.074219 190.097656 C 957.289062 189.378906 957.429688 188.648438 957.5 187.902344 C 957.566406 187.152344 957.5625 186.40625 957.484375 185.660156 C 957.40625 184.914062 957.257812 184.183594 957.03125 183.46875 C 956.808594 182.753906 956.519531 182.066406 956.160156 181.40625 C 955.800781 180.75 955.378906 180.132812 954.898438 179.558594 C 954.417969 178.980469 953.882812 178.460938 953.300781 177.988281 C 952.714844 177.519531 952.089844 177.113281 951.425781 176.765625 C 950.757812 176.421875 950.066406 176.144531 949.34375 175.933594 C 948.625 175.726562 947.890625 175.589844 947.144531 175.527344 C 946.398438 175.464844 945.648438 175.472656 944.90625 175.558594 C 944.160156 175.644531 943.429688 175.800781 942.714844 176.027344 C 942 176.257812 941.316406 176.554688 940.660156 176.917969 L 877.867188 211.167969 C 819.597656 195.699219 753.546875 214.429688 750.695312 215.257812 C 750.238281 215.390625 749.789062 215.550781 749.347656 215.738281 L 577.746094 289.800781 C 576.371094 290.375 575.023438 291.019531 573.710938 291.726562 C 572.398438 292.433594 571.125 293.207031 569.886719 294.039062 C 568.648438 294.875 567.457031 295.765625 566.304688 296.71875 C 565.15625 297.671875 564.058594 298.675781 563.007812 299.734375 C 561.957031 300.796875 560.960938 301.90625 560.019531 303.0625 C 559.078125 304.21875 558.199219 305.421875 557.375 306.667969 C 556.550781 307.910156 555.792969 309.195312 555.097656 310.511719 C 554.402344 311.832031 553.769531 313.183594 553.207031 314.566406 C 552.644531 315.945312 552.148438 317.351562 551.726562 318.78125 C 551.300781 320.214844 550.945312 321.660156 550.664062 323.125 C 550.382812 324.589844 550.171875 326.066406 550.035156 327.550781 C 549.898438 329.039062 549.835938 330.527344 549.847656 332.019531 C 549.855469 333.511719 549.9375 335 550.09375 336.484375 C 550.25 337.964844 550.480469 339.4375 550.78125 340.902344 C 551.082031 342.363281 551.457031 343.804688 551.898438 345.230469 C 552.34375 346.652344 552.855469 348.054688 553.4375 349.425781 C 554.019531 350.800781 554.664062 352.144531 555.378906 353.453125 C 556.09375 354.765625 556.867188 356.035156 557.707031 357.269531 C 558.546875 358.503906 559.445312 359.695312 560.398438 360.839844 C 561.355469 361.984375 562.367188 363.082031 563.429688 364.125 C 564.492188 365.171875 565.605469 366.164062 566.769531 367.101562 C 567.929688 368.035156 569.136719 368.914062 570.382812 369.730469 C 571.632812 370.550781 572.917969 371.304688 574.238281 371.996094 C 575.5625 372.6875 576.914062 373.308594 578.296875 373.867188 C 579.679688 374.425781 581.089844 374.914062 582.519531 375.332031 C 583.953125 375.753906 585.402344 376.101562 586.867188 376.375 C 588.335938 376.652344 589.8125 376.855469 591.296875 376.988281 C 592.785156 377.117188 594.273438 377.175781 595.765625 377.160156 C 597.257812 377.144531 598.746094 377.054688 600.226562 376.894531 C 601.710938 376.730469 603.183594 376.496094 604.640625 376.191406 C 606.101562 375.882812 607.542969 375.503906 608.96875 375.054688 C 610.390625 374.605469 611.785156 374.089844 613.160156 373.503906 L 708.382812 331.875 C 708.765625 334.277344 709.816406 336.34375 711.535156 338.066406 L 843.429688 469.972656 C 851.140625 477.679688 852.207031 489.808594 845.859375 497.59375 C 844.984375 498.675781 844.003906 499.65625 842.921875 500.53125 C 841.835938 501.40625 840.675781 502.15625 839.429688 502.785156 C 838.1875 503.414062 836.894531 503.90625 835.546875 504.257812 C 834.199219 504.613281 832.828125 504.820312 831.4375 504.882812 C 830.050781 504.949219 828.671875 504.871094 827.296875 504.652344 C 825.925781 504.433594 824.59375 504.078125 823.292969 503.582031 C 821.996094 503.085938 820.761719 502.460938 819.59375 501.710938 C 818.425781 500.960938 817.34375 500.097656 816.355469 499.125 L 766.144531 448.914062 C 765.617188 448.390625 765.042969 447.917969 764.425781 447.503906 C 763.804688 447.089844 763.148438 446.742188 762.460938 446.457031 C 761.773438 446.171875 761.0625 445.957031 760.332031 445.8125 C 759.597656 445.667969 758.859375 445.59375 758.117188 445.59375 C 757.371094 445.59375 756.632812 445.667969 755.898438 445.8125 C 755.167969 445.960938 754.460938 446.175781 753.769531 446.460938 C 753.082031 446.746094 752.425781 447.097656 751.808594 447.511719 C 751.1875 447.925781 750.613281 448.394531 750.085938 448.921875 C 749.558594 449.449219 749.089844 450.023438 748.675781 450.644531 C 748.261719 451.261719 747.910156 451.917969 747.625 452.605469 C 747.339844 453.296875 747.125 454.003906 746.980469 454.734375 C 746.832031 455.46875 746.761719 456.207031 746.761719 456.953125 C 746.761719 457.695312 746.832031 458.433594 746.976562 459.167969 C 747.121094 459.898438 747.335938 460.609375 747.621094 461.296875 C 747.90625 461.984375 748.257812 462.640625 748.671875 463.261719 C 749.085938 463.878906 749.554688 464.453125 750.082031 464.980469 L 796.273438 511.171875 C 797.253906 512.160156 798.121094 513.238281 798.875 514.40625 C 799.628906 515.574219 800.253906 516.804688 800.75 518.105469 C 801.242188 519.402344 801.601562 520.742188 801.816406 522.113281 C 802.03125 523.488281 802.105469 524.867188 802.03125 526.257812 C 801.96875 527.648438 801.761719 529.015625 801.410156 530.363281 C 801.054688 531.710938 800.5625 533.003906 799.9375 534.246094 C 799.308594 535.488281 798.554688 536.652344 797.679688 537.734375 C 796.804688 538.820312 795.828125 539.796875 794.742188 540.671875 C 786.953125 547.03125 774.835938 545.964844 767.113281 538.238281 L 717.945312 489.085938 C 717.417969 488.558594 716.84375 488.085938 716.226562 487.671875 C 715.605469 487.257812 714.949219 486.90625 714.261719 486.621094 C 713.574219 486.335938 712.863281 486.121094 712.128906 485.976562 C 711.398438 485.832031 710.660156 485.757812 709.914062 485.757812 C 709.167969 485.757812 708.429688 485.832031 707.699219 485.976562 C 706.96875 486.121094 706.257812 486.335938 705.566406 486.621094 C 704.878906 486.90625 704.222656 487.257812 703.605469 487.671875 C 702.984375 488.085938 702.410156 488.558594 701.882812 489.085938 C 701.355469 489.613281 700.882812 490.1875 700.46875 490.804688 C 700.054688 491.425781 699.707031 492.082031 699.417969 492.769531 C 699.132812 493.457031 698.917969 494.167969 698.773438 494.902344 C 698.628906 495.632812 698.554688 496.371094 698.554688 497.117188 C 698.554688 497.863281 698.628906 498.601562 698.773438 499.332031 C 698.917969 500.066406 699.132812 500.773438 699.417969 501.464844 C 699.707031 502.152344 700.054688 502.808594 700.46875 503.429688 C 700.882812 504.046875 701.355469 504.621094 701.882812 505.148438 L 748.074219 551.339844 C 749.054688 552.328125 749.921875 553.402344 750.675781 554.570312 C 751.429688 555.742188 752.054688 556.972656 752.546875 558.273438 C 753.042969 559.570312 753.402344 560.90625 753.617188 562.28125 C 753.832031 563.652344 753.90625 565.035156 753.832031 566.421875 C 753.769531 567.8125 753.5625 569.183594 753.207031 570.53125 C 752.855469 571.878906 752.363281 573.171875 751.734375 574.414062 C 751.109375 575.65625 750.355469 576.820312 749.480469 577.902344 C 748.605469 578.984375 747.625 579.964844 746.542969 580.839844 C 738.761719 587.199219 726.636719 586.136719 718.914062 578.40625 L 665.730469 525.234375 C 665.203125 524.707031 664.628906 524.238281 664.007812 523.824219 C 663.390625 523.410156 662.734375 523.058594 662.046875 522.773438 C 661.355469 522.488281 660.644531 522.273438 659.914062 522.125 C 659.183594 521.980469 658.445312 521.910156 657.699219 521.910156 C 656.953125 521.910156 656.214844 521.980469 655.484375 522.125 C 654.75 522.273438 654.039062 522.488281 653.351562 522.773438 C 652.664062 523.058594 652.007812 523.410156 651.386719 523.824219 C 650.769531 524.238281 650.195312 524.707031 649.667969 525.234375 C 649.140625 525.761719 648.667969 526.335938 648.253906 526.957031 C 647.839844 527.578125 647.488281 528.230469 647.203125 528.921875 C 646.917969 529.609375 646.703125 530.320312 646.558594 531.050781 C 646.410156 531.785156 646.339844 532.523438 646.339844 533.269531 C 646.339844 534.015625 646.410156 534.753906 646.558594 535.484375 C 646.703125 536.214844 646.917969 536.925781 647.203125 537.613281 C 647.488281 538.304688 647.839844 538.957031 648.253906 539.578125 C 648.667969 540.199219 649.140625 540.773438 649.667969 541.300781 L 697.867188 589.5 C 698.210938 589.84375 705.914062 600.949219 705.632812 606.585938 C 705.570312 607.976562 705.363281 609.347656 705.007812 610.695312 C 704.65625 612.039062 704.164062 613.335938 703.535156 614.578125 C 702.90625 615.824219 702.15625 616.984375 701.28125 618.070312 C 700.40625 619.152344 699.425781 620.132812 698.34375 621.007812 C 690.5625 627.355469 678.433594 626.300781 670.71875 618.582031 L 473.980469 421.839844 C 472.964844 420.824219 472.175781 419.660156 471.601562 418.34375 L 446.585938 360.84375 C 446.300781 360.140625 445.945312 359.476562 445.527344 358.847656 C 445.109375 358.21875 444.628906 357.636719 444.09375 357.101562 C 443.558594 356.570312 442.976562 356.09375 442.347656 355.675781 C 441.714844 355.257812 441.050781 354.90625 440.347656 354.621094 C 439.648438 354.335938 438.925781 354.125 438.183594 353.984375 C 437.4375 353.84375 436.6875 353.777344 435.933594 353.785156 C 435.175781 353.796875 434.429688 353.878906 433.6875 354.039062 C 432.949219 354.199219 432.234375 354.429688 431.539062 354.730469 C 430.84375 355.03125 430.1875 355.398438 429.566406 355.832031 C 428.949219 356.265625 428.375 356.753906 427.855469 357.304688 C 427.332031 357.851562 426.871094 358.445312 426.464844 359.082031 C 426.0625 359.722656 425.726562 360.394531 425.457031 361.101562 C 425.1875 361.808594 424.988281 362.535156 424.867188 363.28125 C 424.742188 364.027344 424.691406 364.78125 424.71875 365.535156 C 424.746094 366.292969 424.84375 367.039062 425.019531 367.773438 C 425.195312 368.511719 425.441406 369.222656 425.757812 369.90625 L 450.761719 427.386719 C 452.476562 431.351562 454.859375 434.855469 457.914062 437.90625 Z M 486.171875 488.148438 C 485.382812 487.351562 484.667969 486.496094 484.019531 485.582031 C 483.375 484.667969 482.8125 483.703125 482.328125 482.695312 C 481.847656 481.683594 481.453125 480.640625 481.144531 479.5625 C 480.839844 478.484375 480.625 477.390625 480.503906 476.277344 C 480.382812 475.164062 480.355469 474.050781 480.421875 472.933594 C 480.488281 471.8125 480.648438 470.710938 480.902344 469.621094 C 481.152344 468.527344 481.496094 467.464844 481.929688 466.433594 C 482.359375 465.402344 482.875 464.410156 483.472656 463.464844 L 510.859375 490.851562 C 509.914062 491.449219 508.925781 491.964844 507.890625 492.398438 C 506.859375 492.828125 505.796875 493.171875 504.703125 493.425781 C 503.613281 493.675781 502.507812 493.835938 501.390625 493.902344 C 500.273438 493.96875 499.15625 493.941406 498.042969 493.820312 C 496.929688 493.699219 495.835938 493.484375 494.757812 493.175781 C 493.679688 492.871094 492.636719 492.476562 491.625 491.992188 C 490.613281 491.507812 489.652344 490.945312 488.738281 490.300781 C 487.820312 489.652344 486.964844 488.9375 486.171875 488.148438 Z M 530.355469 532.328125 C 529.566406 531.535156 528.851562 530.679688 528.203125 529.765625 C 527.558594 528.851562 526.996094 527.886719 526.511719 526.875 C 526.03125 525.867188 525.636719 524.824219 525.332031 523.746094 C 525.023438 522.667969 524.808594 521.574219 524.6875 520.460938 C 524.566406 519.347656 524.539062 518.230469 524.605469 517.113281 C 524.671875 515.996094 524.832031 514.894531 525.082031 513.800781 C 525.335938 512.710938 525.679688 511.648438 526.109375 510.617188 C 526.542969 509.582031 527.058594 508.59375 527.65625 507.648438 L 555.042969 535.035156 C 554.097656 535.632812 553.109375 536.148438 552.074219 536.582031 C 551.042969 537.011719 549.980469 537.355469 548.886719 537.609375 C 547.796875 537.863281 546.691406 538.019531 545.574219 538.085938 C 544.457031 538.152344 543.339844 538.125 542.226562 538.003906 C 541.113281 537.882812 540.019531 537.667969 538.941406 537.359375 C 537.863281 537.054688 536.820312 536.660156 535.808594 536.175781 C 534.796875 535.691406 533.835938 535.128906 532.921875 534.484375 C 532.003906 533.835938 531.148438 533.121094 530.355469 532.328125 Z M 574.539062 576.519531 C 573.75 575.726562 573.03125 574.871094 572.386719 573.957031 C 571.742188 573.039062 571.179688 572.078125 570.695312 571.066406 C 570.214844 570.058594 569.820312 569.011719 569.511719 567.9375 C 569.207031 566.859375 568.992188 565.765625 568.871094 564.652344 C 568.75 563.539062 568.722656 562.421875 568.789062 561.304688 C 568.855469 560.1875 569.015625 559.082031 569.265625 557.992188 C 569.519531 556.902344 569.863281 555.839844 570.292969 554.804688 C 570.726562 553.773438 571.242188 552.785156 571.839844 551.835938 L 599.226562 579.222656 C 598.28125 579.824219 597.289062 580.339844 596.257812 580.769531 C 595.222656 581.203125 594.160156 581.546875 593.070312 581.796875 C 591.980469 582.050781 590.875 582.210938 589.757812 582.277344 C 588.636719 582.34375 587.523438 582.316406 586.410156 582.195312 C 585.296875 582.074219 584.199219 581.859375 583.125 581.550781 C 582.046875 581.246094 581.003906 580.851562 579.992188 580.367188 C 578.980469 579.882812 578.019531 579.320312 577.101562 578.671875 C 576.1875 578.027344 575.332031 577.308594 574.539062 576.519531 Z M 618.710938 620.695312 C 617.921875 619.898438 617.207031 619.046875 616.5625 618.128906 C 615.917969 617.214844 615.351562 616.253906 614.871094 615.242188 C 614.386719 614.230469 613.992188 613.1875 613.6875 612.109375 C 613.378906 611.035156 613.167969 609.9375 613.042969 608.824219 C 612.921875 607.714844 612.894531 606.597656 612.960938 605.480469 C 613.027344 604.363281 613.1875 603.257812 613.441406 602.167969 C 613.695312 601.078125 614.035156 600.015625 614.46875 598.980469 C 614.902344 597.949219 615.417969 596.960938 616.015625 596.015625 L 643.363281 623.363281 C 642.410156 623.933594 641.417969 624.425781 640.386719 624.835938 C 639.351562 625.246094 638.292969 625.570312 637.207031 625.808594 C 636.121094 626.046875 635.023438 626.195312 633.914062 626.253906 C 632.804688 626.316406 631.699219 626.285156 630.59375 626.167969 C 629.488281 626.046875 628.398438 625.839844 627.328125 625.542969 C 626.257812 625.246094 625.21875 624.867188 624.207031 624.402344 C 623.199219 623.933594 622.234375 623.390625 621.3125 622.769531 C 620.390625 622.148438 619.527344 621.457031 618.71875 620.695312 Z M 618.710938 620.695312 " fill-opacity="1" fill-rule="nonzero"/><path fill="#005082" d="M 874.945312 450.339844 C 875.300781 450.996094 875.71875 451.609375 876.195312 452.183594 C 876.675781 452.753906 877.207031 453.273438 877.785156 453.742188 C 878.367188 454.210938 878.988281 454.617188 879.648438 454.964844 C 880.308594 455.308594 880.996094 455.589844 881.714844 455.796875 C 882.429688 456.007812 883.160156 456.148438 883.902344 456.214844 C 884.644531 456.28125 885.386719 456.273438 886.128906 456.195312 C 886.871094 456.117188 887.597656 455.964844 888.308594 455.742188 C 889.019531 455.519531 889.703125 455.230469 890.359375 454.875 L 1015.332031 386.710938 C 1015.988281 386.351562 1016.601562 385.933594 1017.175781 385.457031 C 1017.746094 384.980469 1018.269531 384.449219 1018.738281 383.867188 C 1019.207031 383.289062 1019.613281 382.667969 1019.960938 382.007812 C 1020.308594 381.34375 1020.585938 380.65625 1020.796875 379.941406 C 1021.007812 379.226562 1021.144531 378.496094 1021.214844 377.75 C 1021.28125 377.007812 1021.273438 376.265625 1021.195312 375.523438 C 1021.117188 374.78125 1020.964844 374.054688 1020.742188 373.34375 C 1020.519531 372.628906 1020.230469 371.945312 1019.871094 371.289062 C 1019.515625 370.636719 1019.097656 370.019531 1018.617188 369.449219 C 1018.140625 368.875 1017.609375 368.355469 1017.027344 367.886719 C 1016.445312 367.417969 1015.824219 367.011719 1015.164062 366.664062 C 1014.503906 366.320312 1013.816406 366.042969 1013.097656 365.832031 C 1012.382812 365.621094 1011.652344 365.480469 1010.910156 365.414062 C 1010.164062 365.347656 1009.421875 365.355469 1008.679688 365.4375 C 1007.9375 365.515625 1007.210938 365.667969 1006.5 365.890625 C 1005.789062 366.113281 1005.105469 366.40625 1004.449219 366.761719 L 879.476562 434.925781 C 878.820312 435.285156 878.207031 435.703125 877.636719 436.179688 C 877.0625 436.65625 876.542969 437.1875 876.074219 437.769531 C 875.605469 438.347656 875.199219 438.96875 874.851562 439.628906 C 874.503906 440.292969 874.226562 440.980469 874.015625 441.695312 C 873.804688 442.410156 873.667969 443.140625 873.601562 443.882812 C 873.535156 444.625 873.539062 445.367188 873.621094 446.109375 C 873.699219 446.851562 873.851562 447.578125 874.074219 448.292969 C 874.296875 449.003906 874.585938 449.6875 874.945312 450.339844 Z M 874.945312 450.339844 " fill-opacity="1" fill-rule="nonzero"/><path fill="#005082" d="M 586.546875 228.648438 L 649.035156 245.6875 C 649.753906 245.882812 650.484375 246 651.226562 246.050781 C 651.964844 246.097656 652.707031 246.074219 653.441406 245.976562 C 654.179688 245.878906 654.902344 245.710938 655.605469 245.472656 C 656.308594 245.234375 656.984375 244.929688 657.628906 244.558594 C 658.273438 244.191406 658.875 243.761719 659.433594 243.269531 C 659.996094 242.78125 660.5 242.242188 660.957031 241.65625 C 661.410156 241.066406 661.804688 240.441406 662.132812 239.773438 C 662.464844 239.109375 662.730469 238.417969 662.925781 237.699219 C 663.121094 236.984375 663.242188 236.253906 663.296875 235.511719 C 663.347656 234.769531 663.328125 234.03125 663.234375 233.292969 C 663.144531 232.554688 662.980469 231.835938 662.746094 231.128906 C 662.511719 230.421875 662.210938 229.746094 661.84375 229.101562 C 661.476562 228.453125 661.050781 227.851562 660.5625 227.289062 C 660.078125 226.726562 659.542969 226.214844 658.957031 225.757812 C 658.371094 225.300781 657.746094 224.902344 657.082031 224.566406 C 656.417969 224.234375 655.730469 223.964844 655.011719 223.765625 L 592.527344 206.722656 C 591.808594 206.527344 591.074219 206.402344 590.332031 206.351562 C 589.585938 206.300781 588.84375 206.320312 588.105469 206.414062 C 587.363281 206.507812 586.640625 206.671875 585.933594 206.910156 C 585.226562 207.148438 584.546875 207.449219 583.902344 207.820312 C 583.253906 208.191406 582.648438 208.621094 582.085938 209.109375 C 581.519531 209.597656 581.011719 210.140625 580.554688 210.730469 C 580.097656 211.320312 579.703125 211.945312 579.371094 212.613281 C 579.035156 213.28125 578.773438 213.976562 578.574219 214.695312 C 578.378906 215.414062 578.253906 216.148438 578.203125 216.890625 C 578.152344 217.636719 578.171875 218.378906 578.265625 219.117188 C 578.359375 219.859375 578.523438 220.582031 578.761719 221.289062 C 579 221.996094 579.300781 222.675781 579.671875 223.324219 C 580.042969 223.96875 580.472656 224.574219 580.960938 225.140625 C 581.449219 225.703125 581.988281 226.210938 582.578125 226.667969 C 583.167969 227.125 583.796875 227.519531 584.464844 227.855469 C 585.132812 228.1875 585.828125 228.453125 586.546875 228.648438 Z M 586.546875 228.648438 " fill-opacity="1" fill-rule="nonzero"/><path fill="#005082" d="M 472.03125 169.003906 C 471.46875 168.511719 470.863281 168.082031 470.21875 167.710938 C 469.570312 167.339844 468.894531 167.039062 468.1875 166.800781 C 467.480469 166.5625 466.753906 166.394531 466.015625 166.300781 C 465.273438 166.207031 464.535156 166.183594 463.789062 166.234375 C 463.042969 166.285156 462.3125 166.410156 461.59375 166.605469 C 460.871094 166.800781 460.179688 167.0625 459.511719 167.394531 C 458.84375 167.726562 458.210938 168.121094 457.621094 168.574219 C 457.03125 169.03125 456.492188 169.539062 456 170.101562 C 448.976562 178.164062 442.328125 186.523438 436.054688 195.179688 C 429.78125 203.835938 423.910156 212.757812 418.433594 221.941406 C 412.960938 231.125 407.910156 240.539062 403.28125 250.175781 C 398.648438 259.8125 394.460938 269.636719 390.710938 279.648438 C 386.964844 289.660156 383.671875 299.824219 380.832031 310.128906 C 377.996094 320.4375 375.625 330.851562 373.722656 341.375 C 371.816406 351.894531 370.386719 362.480469 369.433594 373.128906 C 368.480469 383.777344 368.003906 394.445312 368.003906 405.136719 C 368.003906 405.882812 368.078125 406.621094 368.222656 407.355469 C 368.367188 408.085938 368.585938 408.796875 368.871094 409.484375 C 369.15625 410.175781 369.503906 410.828125 369.917969 411.449219 C 370.335938 412.070312 370.804688 412.644531 371.332031 413.171875 C 371.859375 413.699219 372.433594 414.167969 373.054688 414.582031 C 373.675781 415 374.328125 415.347656 375.019531 415.632812 C 375.707031 415.917969 376.417969 416.132812 377.148438 416.28125 C 377.882812 416.425781 378.621094 416.5 379.367188 416.5 C 380.113281 416.5 380.851562 416.425781 381.582031 416.28125 C 382.3125 416.132812 383.023438 415.917969 383.714844 415.632812 C 384.402344 415.347656 385.058594 415 385.675781 414.582031 C 386.296875 414.167969 386.871094 413.699219 387.398438 413.171875 C 387.925781 412.644531 388.398438 412.070312 388.8125 411.449219 C 389.226562 410.828125 389.578125 410.175781 389.863281 409.484375 C 390.148438 408.796875 390.363281 408.085938 390.507812 407.355469 C 390.652344 406.621094 390.726562 405.882812 390.726562 405.136719 C 390.722656 395.125 391.167969 385.132812 392.0625 375.160156 C 392.957031 365.1875 394.292969 355.277344 396.078125 345.425781 C 397.859375 335.574219 400.078125 325.820312 402.738281 316.167969 C 405.394531 306.511719 408.476562 297 411.988281 287.621094 C 415.5 278.246094 419.421875 269.042969 423.757812 260.019531 C 428.09375 250.996094 432.824219 242.183594 437.949219 233.582031 C 443.074219 224.980469 448.574219 216.628906 454.449219 208.519531 C 460.324219 200.414062 466.550781 192.585938 473.128906 185.035156 C 473.617188 184.472656 474.046875 183.867188 474.417969 183.222656 C 474.789062 182.574219 475.09375 181.898438 475.332031 181.191406 C 475.570312 180.484375 475.738281 179.757812 475.832031 179.019531 C 475.925781 178.28125 475.949219 177.539062 475.898438 176.792969 C 475.847656 176.046875 475.726562 175.316406 475.53125 174.597656 C 475.335938 173.875 475.070312 173.183594 474.738281 172.515625 C 474.40625 171.84375 474.015625 171.214844 473.558594 170.625 C 473.101562 170.035156 472.59375 169.492188 472.03125 169.003906 Z M 472.03125 169.003906 " fill-opacity="1" fill-rule="nonzero"/><g clip-path="url(#b5c87beec4)"><path fill="#005082" d="M 1063.265625 485.222656 C 1062.546875 485.027344 1061.8125 484.902344 1061.070312 484.847656 C 1060.324219 484.796875 1059.582031 484.816406 1058.84375 484.910156 C 1058.101562 485.003906 1057.378906 485.171875 1056.671875 485.40625 C 1055.964844 485.644531 1055.285156 485.949219 1054.636719 486.320312 C 1053.988281 486.691406 1053.386719 487.121094 1052.824219 487.609375 C 1052.261719 488.101562 1051.75 488.640625 1051.296875 489.234375 C 1050.839844 489.824219 1050.445312 490.453125 1050.113281 491.121094 C 1049.78125 491.789062 1049.519531 492.484375 1049.324219 493.207031 C 1009.808594 638.679688 876.796875 740.277344 725.867188 740.277344 C 719.347656 740.261719 712.832031 740.058594 706.324219 739.664062 C 699.816406 739.269531 693.324219 738.6875 686.847656 737.917969 C 680.375 737.148438 673.925781 736.1875 667.507812 735.042969 C 661.089844 733.898438 654.707031 732.566406 648.367188 731.050781 C 642.023438 729.535156 635.730469 727.835938 629.488281 725.953125 C 623.246094 724.074219 617.0625 722.011719 610.9375 719.769531 C 604.8125 717.53125 598.761719 715.113281 592.777344 712.519531 C 586.792969 709.929688 580.890625 707.164062 575.070312 704.230469 C 569.246094 701.292969 563.515625 698.191406 557.871094 694.925781 C 552.230469 691.65625 546.6875 688.226562 541.242188 684.636719 C 535.800781 681.046875 530.464844 677.300781 525.242188 673.402344 C 520.015625 669.5 514.90625 665.453125 509.917969 661.253906 C 504.925781 657.058594 500.0625 652.722656 495.324219 648.242188 C 490.585938 643.761719 485.980469 639.148438 481.507812 634.402344 C 477.039062 629.65625 472.710938 624.78125 468.523438 619.785156 C 464.335938 614.785156 460.296875 609.671875 456.40625 604.4375 C 455.960938 603.84375 455.460938 603.296875 454.90625 602.800781 C 454.355469 602.304688 453.757812 601.867188 453.121094 601.488281 C 452.480469 601.109375 451.8125 600.792969 451.109375 600.546875 C 450.410156 600.296875 449.691406 600.121094 448.957031 600.011719 C 448.222656 599.90625 447.484375 599.871094 446.742188 599.90625 C 446 599.945312 445.265625 600.054688 444.546875 600.238281 C 443.824219 600.417969 443.128906 600.667969 442.457031 600.984375 C 441.785156 601.304688 441.152344 601.683594 440.554688 602.125 C 439.957031 602.566406 439.40625 603.0625 438.910156 603.613281 C 438.410156 604.164062 437.96875 604.757812 437.582031 605.394531 C 437.199219 606.03125 436.882812 606.699219 436.628906 607.394531 C 436.378906 608.09375 436.195312 608.8125 436.082031 609.546875 C 435.972656 610.28125 435.933594 611.019531 435.964844 611.761719 C 436 612.503906 436.105469 613.238281 436.28125 613.957031 C 436.457031 614.679688 436.703125 615.378906 437.015625 616.050781 C 437.328125 616.726562 437.707031 617.363281 438.144531 617.960938 C 442.300781 623.550781 446.613281 629.011719 451.082031 634.347656 C 455.554688 639.683594 460.175781 644.886719 464.949219 649.957031 C 469.722656 655.023438 474.640625 659.949219 479.699219 664.730469 C 484.761719 669.515625 489.953125 674.148438 495.285156 678.628906 C 500.613281 683.109375 506.066406 687.429688 511.644531 691.59375 C 517.226562 695.757812 522.921875 699.757812 528.734375 703.589844 C 534.546875 707.425781 540.464844 711.085938 546.488281 714.574219 C 552.515625 718.066406 558.636719 721.375 564.851562 724.511719 C 571.070312 727.644531 577.371094 730.59375 583.761719 733.363281 C 590.148438 736.132812 596.613281 738.710938 603.152344 741.105469 C 609.6875 743.496094 616.292969 745.695312 622.957031 747.707031 C 629.625 749.714844 636.34375 751.527344 643.113281 753.148438 C 649.886719 754.765625 656.699219 756.1875 663.554688 757.410156 C 670.40625 758.632812 677.292969 759.65625 684.203125 760.480469 C 691.117188 761.300781 698.050781 761.925781 705 762.34375 C 711.949219 762.765625 718.90625 762.984375 725.867188 763 C 887.027344 763 1029.054688 654.507812 1071.246094 499.164062 C 1071.445312 498.445312 1071.566406 497.710938 1071.617188 496.96875 C 1071.671875 496.222656 1071.648438 495.480469 1071.554688 494.742188 C 1071.460938 494 1071.292969 493.277344 1071.058594 492.570312 C 1070.820312 491.863281 1070.515625 491.1875 1070.144531 490.539062 C 1069.773438 489.890625 1069.34375 489.285156 1068.855469 488.722656 C 1068.363281 488.160156 1067.824219 487.652344 1067.234375 487.195312 C 1066.644531 486.742188 1066.015625 486.347656 1065.347656 486.015625 C 1064.679688 485.683594 1063.984375 485.417969 1063.265625 485.222656 Z M 1063.265625 485.222656 " fill-opacity="1" fill-rule="nonzero"/></g><g clip-path="url(#18dc3df85b)"><path fill="#005082" d="M 725.867188 69.996094 C 734.785156 69.972656 743.6875 70.304688 752.578125 70.996094 C 761.46875 71.6875 770.320312 72.734375 779.125 74.136719 C 787.933594 75.542969 796.667969 77.296875 805.332031 79.402344 C 814 81.507812 822.566406 83.960938 831.03125 86.757812 C 839.5 89.554688 847.84375 92.683594 856.058594 96.152344 C 864.273438 99.621094 872.339844 103.410156 880.25 107.527344 C 888.160156 111.644531 895.890625 116.070312 903.445312 120.8125 C 911 125.550781 918.351562 130.585938 925.5 135.914062 C 926.101562 136.359375 926.738281 136.742188 927.410156 137.058594 C 928.085938 137.378906 928.78125 137.628906 929.507812 137.808594 C 930.230469 137.992188 930.964844 138.097656 931.707031 138.136719 C 932.453125 138.171875 933.195312 138.136719 933.929688 138.027344 C 934.667969 137.917969 935.386719 137.738281 936.089844 137.488281 C 936.792969 137.234375 937.464844 136.917969 938.101562 136.535156 C 938.742188 136.152344 939.339844 135.710938 939.890625 135.210938 C 940.445312 134.710938 940.941406 134.160156 941.386719 133.5625 C 941.832031 132.964844 942.214844 132.328125 942.53125 131.65625 C 942.851562 130.980469 943.101562 130.28125 943.285156 129.558594 C 943.464844 128.835938 943.574219 128.101562 943.613281 127.359375 C 943.648438 126.613281 943.613281 125.871094 943.503906 125.132812 C 943.398438 124.398438 943.21875 123.675781 942.96875 122.976562 C 942.714844 122.273438 942.398438 121.601562 942.019531 120.960938 C 941.636719 120.320312 941.195312 119.726562 940.695312 119.171875 C 940.195312 118.621094 939.644531 118.121094 939.046875 117.675781 C 931.414062 111.984375 923.5625 106.605469 915.496094 101.542969 C 907.429688 96.484375 899.171875 91.753906 890.726562 87.359375 C 882.277344 82.964844 873.667969 78.914062 864.894531 75.210938 C 856.121094 71.507812 847.210938 68.164062 838.171875 65.175781 C 829.128906 62.191406 819.980469 59.570312 810.726562 57.320312 C 801.472656 55.070312 792.144531 53.199219 782.738281 51.699219 C 773.335938 50.199219 763.886719 49.082031 754.394531 48.34375 C 744.898438 47.605469 735.390625 47.25 725.867188 47.277344 C 725.121094 47.277344 724.382812 47.347656 723.652344 47.492188 C 722.917969 47.640625 722.207031 47.855469 721.519531 48.140625 C 720.832031 48.425781 720.175781 48.777344 719.554688 49.191406 C 718.933594 49.605469 718.363281 50.074219 717.835938 50.601562 C 717.304688 51.128906 716.835938 51.703125 716.421875 52.324219 C 716.007812 52.945312 715.65625 53.601562 715.371094 54.289062 C 715.085938 54.976562 714.871094 55.6875 714.726562 56.421875 C 714.578125 57.152344 714.507812 57.890625 714.507812 58.636719 C 714.507812 59.382812 714.578125 60.121094 714.726562 60.851562 C 714.871094 61.585938 715.085938 62.292969 715.371094 62.984375 C 715.65625 63.671875 716.007812 64.328125 716.421875 64.949219 C 716.835938 65.570312 717.304688 66.140625 717.835938 66.667969 C 718.363281 67.195312 718.933594 67.667969 719.554688 68.082031 C 720.175781 68.496094 720.832031 68.847656 721.519531 69.132812 C 722.207031 69.417969 722.917969 69.632812 723.652344 69.777344 C 724.382812 69.925781 725.121094 69.996094 725.867188 69.996094 Z M 725.867188 69.996094 " fill-opacity="1" fill-rule="nonzero"/></g><g clip-path="url(#ca6c9cff1c)"><path fill="#ffffff" d="M 69.550781 46.65625 L 312.550781 46.65625 L 312.550781 289.65625 L 69.550781 289.65625 Z M 69.550781 46.65625 " fill-opacity="1" fill-rule="nonzero"/></g></svg>