<svg xmlns="http://www.w3.org/2000/svg" xmlns:xlink="http://www.w3.org/1999/xlink" width="1920" zoomAndPan="magnify" viewBox="0 0 1440 809.999993" height="1080" preserveAspectRatio="xMidYMid meet" version="1.0"><defs><clipPath id="a3ad6a15c4"><path d="M 747 81 L 843 81 L 843 177 L 747 177 Z M 747 81 " clip-rule="nonzero"/></clipPath><clipPath id="4f28fb3425"><path d="M 381.132812 199 L 955 199 L 955 704.25 L 381.132812 704.25 Z M 381.132812 199 " clip-rule="nonzero"/></clipPath><clipPath id="1b117743e2"><path d="M 69.550781 46.65625 L 312.550781 46.65625 L 312.550781 289.65625 L 69.550781 289.65625 Z M 69.550781 46.65625 " clip-rule="nonzero"/></clipPath></defs><rect x="-144" width="1728" fill="#ffffff" y="-80.999999" height="971.999992" fill-opacity="1"/><rect x="-144" width="1728" fill="#ffffff" y="-80.999999" height="971.999992" fill-opacity="1"/><path fill="#005082" d="M 852.558594 175.378906 L 831.347656 182.898438 C 831.347656 196.589844 831.347656 196.628906 831.328125 210.339844 L 852.519531 217.898438 C 855.808594 225.871094 857.472656 229.902344 860.785156 237.875 L 851.109375 258.183594 C 860.785156 267.878906 860.824219 267.898438 870.5 277.59375 L 890.828125 267.9375 C 898.796875 271.246094 902.8125 272.910156 910.785156 276.222656 L 918.304688 297.433594 C 931.996094 297.433594 932.035156 297.433594 945.742188 297.453125 L 953.304688 276.261719 C 961.273438 272.972656 965.308594 271.304688 973.28125 267.996094 L 993.589844 277.671875 C 1003.285156 267.996094 1003.304688 267.957031 1012.996094 258.28125 L 1003.34375 237.953125 C 1006.652344 229.980469 1008.316406 225.96875 1011.628906 217.996094 L 1032.835938 210.476562 C 1032.835938 196.785156 1032.835938 196.746094 1032.855469 183.039062 L 1011.667969 175.496094 C 1008.375 167.527344 1006.710938 163.492188 1003.402344 155.519531 L 1013.078125 135.210938 C 1003.402344 125.515625 1003.363281 125.496094 993.6875 115.800781 L 973.359375 125.457031 C 965.386719 122.148438 961.371094 120.484375 953.402344 117.171875 L 945.878906 95.960938 C 932.191406 95.960938 932.152344 95.960938 918.441406 95.941406 L 910.882812 117.132812 C 902.910156 120.425781 898.875 122.089844 890.90625 125.398438 L 870.597656 115.722656 C 860.902344 125.398438 860.882812 125.4375 851.1875 135.113281 L 860.84375 155.441406 C 857.535156 163.394531 855.847656 167.410156 852.558594 175.378906 Z M 932.113281 154.441406 C 955.4375 154.460938 974.335938 173.382812 974.316406 196.707031 C 974.296875 220.03125 955.378906 238.933594 932.054688 238.914062 C 908.726562 238.894531 889.828125 219.992188 889.847656 196.667969 C 889.867188 173.34375 908.785156 154.421875 932.113281 154.441406 Z M 932.113281 154.441406 " fill-opacity="1" fill-rule="nonzero"/><path fill="#005082" d="M 756.828125 308.476562 C 756.828125 316.214844 756.828125 316.234375 756.808594 323.96875 L 768.773438 328.238281 C 770.636719 332.742188 771.574219 335.015625 773.4375 339.519531 L 767.972656 350.996094 C 773.4375 356.460938 773.457031 356.480469 778.917969 361.964844 L 790.398438 356.519531 C 794.902344 358.378906 797.171875 359.339844 801.675781 361.199219 L 805.925781 373.167969 C 813.664062 373.167969 813.683594 373.167969 821.417969 373.1875 L 825.6875 361.21875 C 830.191406 359.359375 832.464844 358.417969 836.96875 356.558594 L 848.445312 362.023438 C 853.910156 356.558594 853.929688 356.539062 859.414062 351.074219 L 853.96875 339.597656 C 855.828125 335.09375 856.789062 332.820312 858.648438 328.316406 L 870.617188 324.066406 C 870.617188 316.332031 870.617188 316.3125 870.636719 308.574219 L 858.667969 304.304688 C 856.808594 299.800781 855.867188 297.53125 854.007812 293.027344 L 859.472656 281.550781 C 854.007812 276.085938 853.988281 276.066406 848.523438 270.582031 L 837.046875 276.027344 C 832.542969 274.164062 830.269531 273.207031 825.765625 271.34375 L 821.515625 259.378906 C 813.78125 259.378906 813.761719 259.378906 806.023438 259.359375 L 801.753906 271.324219 C 797.25 273.1875 794.980469 274.125 790.476562 275.988281 L 779 270.523438 C 773.535156 275.988281 773.515625 276.007812 768.03125 281.46875 L 773.476562 292.949219 C 771.613281 297.453125 770.65625 299.722656 768.792969 304.226562 Z M 813.722656 292.398438 C 826.902344 292.398438 837.578125 303.09375 837.558594 316.273438 C 837.558594 329.453125 826.863281 340.128906 813.683594 340.109375 C 800.503906 340.109375 789.828125 329.414062 789.847656 316.234375 C 789.867188 303.054688 800.5625 292.398438 813.722656 292.398438 Z M 813.722656 292.398438 " fill-opacity="1" fill-rule="nonzero"/><path fill="#005082" d="M 691.492188 367.859375 C 691.492188 373.050781 691.492188 373.070312 691.492188 378.277344 L 699.542969 381.136719 C 700.796875 384.171875 701.421875 385.703125 702.675781 388.71875 L 699.011719 396.433594 C 702.695312 400.117188 702.695312 400.117188 706.378906 403.796875 L 714.09375 400.136719 C 717.109375 401.386719 718.636719 402.015625 721.671875 403.289062 L 724.53125 411.335938 C 729.722656 411.335938 729.742188 411.335938 734.953125 411.335938 L 737.8125 403.289062 C 740.847656 402.035156 742.375 401.410156 745.390625 400.15625 L 753.105469 403.816406 C 756.789062 400.136719 756.789062 400.136719 760.472656 396.453125 L 756.808594 388.738281 C 758.0625 385.722656 758.6875 384.191406 759.960938 381.15625 L 768.011719 378.296875 C 768.011719 373.109375 768.011719 373.089844 768.011719 367.878906 L 759.960938 365.019531 C 758.707031 361.984375 758.082031 360.457031 756.828125 357.441406 L 760.492188 349.722656 C 756.808594 346.042969 756.808594 346.042969 753.125 342.359375 L 745.410156 346.023438 C 742.394531 344.769531 740.867188 344.140625 737.832031 342.867188 L 734.972656 334.820312 C 729.78125 334.820312 729.761719 334.820312 724.550781 334.820312 L 721.691406 342.867188 C 718.65625 344.121094 717.128906 344.75 714.113281 346.003906 L 706.398438 342.339844 C 702.714844 346.023438 702.714844 346.023438 699.03125 349.703125 L 702.695312 357.421875 C 701.441406 360.4375 700.816406 361.964844 699.542969 365 Z M 729.742188 357.066406 C 738.59375 357.066406 745.761719 364.253906 745.761719 373.109375 C 745.761719 381.960938 738.574219 389.128906 729.722656 389.128906 C 720.871094 389.128906 713.703125 381.941406 713.703125 373.089844 C 713.703125 364.214844 720.890625 357.046875 729.742188 357.066406 Z M 729.742188 357.066406 " fill-opacity="1" fill-rule="nonzero"/><path fill="#005082" d="M 948.917969 352.347656 C 948.917969 347.160156 948.917969 347.136719 948.917969 341.929688 L 940.867188 339.070312 C 939.613281 336.035156 938.988281 334.507812 937.734375 331.492188 L 941.394531 323.773438 C 937.714844 320.09375 937.714844 320.09375 934.03125 316.410156 L 926.316406 320.074219 C 923.300781 318.820312 921.773438 318.191406 918.734375 316.917969 L 915.875 308.871094 C 910.6875 308.871094 910.667969 308.871094 905.457031 308.871094 L 902.597656 316.917969 C 899.5625 318.171875 898.035156 318.800781 895.019531 320.054688 L 887.300781 316.390625 C 883.621094 320.074219 883.621094 320.074219 879.9375 323.753906 L 883.601562 331.472656 C 882.347656 334.488281 881.71875 336.015625 880.449219 339.050781 L 872.398438 341.910156 C 872.398438 347.097656 872.398438 347.117188 872.398438 352.328125 L 880.449219 355.1875 C 881.699219 358.222656 882.328125 359.75 883.582031 362.765625 L 879.917969 370.484375 C 883.601562 374.164062 883.601562 374.164062 887.28125 377.847656 L 895 374.183594 C 898.015625 375.4375 899.542969 376.066406 902.578125 377.339844 L 905.4375 385.386719 C 910.628906 385.386719 910.648438 385.386719 915.855469 385.386719 L 918.714844 377.339844 C 921.753906 376.085938 923.28125 375.457031 926.296875 374.203125 L 934.011719 377.867188 C 937.695312 374.183594 937.695312 374.183594 941.375 370.503906 L 937.714844 362.785156 C 938.96875 359.769531 939.59375 358.242188 940.867188 355.207031 Z M 910.667969 363.140625 C 901.816406 363.140625 894.648438 355.953125 894.648438 347.097656 C 894.648438 338.246094 901.835938 331.078125 910.6875 331.078125 C 919.539062 331.078125 926.707031 338.265625 926.707031 347.117188 C 926.707031 355.972656 919.519531 363.140625 910.667969 363.140625 Z M 910.667969 363.140625 " fill-opacity="1" fill-rule="nonzero"/><path fill="#005082" d="M 748.289062 241.085938 L 744.625 248.804688 C 748.308594 252.484375 748.308594 252.484375 751.992188 256.167969 L 759.707031 252.503906 C 762.722656 253.757812 764.25 254.382812 767.285156 255.65625 L 770.144531 263.707031 C 775.335938 263.707031 775.355469 263.707031 780.566406 263.707031 L 783.425781 255.65625 C 786.460938 254.40625 787.988281 253.777344 791.003906 252.523438 L 798.71875 256.1875 C 802.402344 252.503906 802.402344 252.503906 806.082031 248.824219 L 802.421875 241.105469 C 803.675781 238.089844 804.300781 236.5625 805.574219 233.527344 L 813.625 230.667969 C 813.625 225.476562 813.625 225.457031 813.625 220.25 L 805.574219 217.390625 C 804.320312 214.351562 803.695312 212.824219 802.441406 209.808594 L 806.105469 202.09375 C 802.421875 198.410156 802.421875 198.410156 798.738281 194.730469 L 791.023438 198.390625 C 788.007812 197.136719 786.480469 196.511719 783.445312 195.238281 L 780.585938 187.1875 C 775.394531 187.1875 775.375 187.1875 770.164062 187.1875 L 767.304688 195.238281 C 764.269531 196.492188 762.742188 197.117188 759.726562 198.371094 L 752.011719 194.710938 C 748.328125 198.390625 748.328125 198.390625 744.644531 202.074219 L 748.308594 209.789062 C 747.054688 212.804688 746.429688 214.332031 745.15625 217.371094 L 737.105469 220.230469 C 737.105469 225.417969 737.105469 225.4375 737.105469 230.648438 L 745.15625 233.507812 C 746.410156 236.542969 747.035156 238.070312 748.289062 241.085938 Z M 775.375 209.4375 C 784.226562 209.4375 791.394531 216.625 791.394531 225.476562 C 791.394531 234.328125 784.207031 241.496094 775.355469 241.496094 C 766.503906 241.496094 759.335938 234.308594 759.335938 225.457031 C 759.335938 216.605469 766.523438 209.417969 775.375 209.4375 Z M 775.375 209.4375 " fill-opacity="1" fill-rule="nonzero"/><g clip-path="url(#a3ad6a15c4)"><path fill="#005082" d="M 761.351562 147.921875 L 756.789062 157.519531 C 761.351562 162.101562 761.371094 162.101562 765.933594 166.683594 L 775.53125 162.140625 C 779.292969 163.707031 781.191406 164.492188 784.953125 166.058594 L 788.496094 176.066406 C 794.960938 176.066406 794.980469 176.066406 801.441406 176.066406 L 805.007812 166.058594 C 808.765625 164.511719 810.667969 163.707031 814.425781 162.160156 L 824.023438 166.722656 C 828.605469 162.160156 828.605469 162.140625 833.1875 157.578125 L 828.644531 147.980469 C 830.210938 144.21875 830.996094 142.320312 832.5625 138.558594 L 842.570312 135.015625 C 842.570312 128.550781 842.570312 128.53125 842.570312 122.070312 L 832.5625 118.503906 C 831.015625 114.746094 830.210938 112.84375 828.664062 109.085938 L 833.230469 99.488281 C 828.664062 94.90625 828.644531 94.90625 824.082031 90.324219 L 814.484375 94.867188 C 810.726562 93.300781 808.824219 92.515625 805.066406 90.949219 L 801.519531 80.921875 C 795.058594 80.921875 795.039062 80.921875 788.574219 80.921875 L 785.011719 90.929688 C 781.25 92.476562 779.351562 93.28125 775.589844 94.828125 L 765.992188 90.261719 C 761.410156 94.828125 761.410156 94.847656 756.828125 99.410156 L 761.371094 109.007812 C 759.804688 112.765625 759.019531 114.667969 757.453125 118.425781 L 747.445312 121.972656 C 747.445312 128.433594 747.445312 128.453125 747.445312 134.917969 L 757.453125 138.5 C 759.023438 142.261719 759.804688 144.160156 761.351562 147.921875 Z M 795.039062 108.554688 C 806.042969 108.554688 814.976562 117.507812 814.976562 128.511719 C 814.976562 139.519531 806.023438 148.449219 795.019531 148.449219 C 784.011719 148.449219 775.082031 139.5 775.082031 128.492188 C 775.082031 117.46875 784.011719 108.535156 795.039062 108.554688 Z M 795.039062 108.554688 " fill-opacity="1" fill-rule="nonzero"/></g><path fill="#005082" d="M 1058.789062 346.84375 C 1058.789062 340.382812 1058.789062 340.363281 1058.789062 333.898438 L 1048.78125 330.335938 C 1047.230469 326.574219 1046.429688 324.675781 1044.882812 320.914062 L 1049.445312 311.316406 C 1044.882812 306.734375 1044.863281 306.734375 1040.300781 302.152344 L 1030.703125 306.695312 C 1026.941406 305.128906 1025.042969 304.347656 1021.28125 302.777344 L 1017.738281 292.769531 C 1011.273438 292.769531 1011.253906 292.769531 1004.792969 292.769531 L 1001.226562 302.777344 C 997.46875 304.324219 995.566406 305.128906 991.808594 306.675781 L 982.210938 302.113281 C 977.628906 306.675781 977.628906 306.695312 973.042969 311.257812 L 977.609375 320.855469 C 976.042969 324.617188 975.257812 326.515625 973.691406 330.277344 L 963.683594 333.820312 C 963.683594 340.285156 963.683594 340.304688 963.683594 346.765625 L 973.691406 350.332031 C 975.238281 354.089844 976.042969 355.992188 977.589844 359.75 L 973.023438 369.347656 C 977.589844 373.929688 977.609375 373.929688 982.171875 378.511719 L 991.769531 373.96875 C 995.527344 375.535156 997.429688 376.320312 1001.1875 377.886719 L 1004.734375 387.894531 C 1011.195312 387.894531 1011.214844 387.894531 1017.679688 387.894531 L 1021.242188 377.886719 C 1025.003906 376.339844 1026.902344 375.535156 1030.664062 373.988281 L 1040.261719 378.554688 C 1044.84375 373.988281 1044.84375 373.96875 1049.425781 369.40625 L 1044.863281 359.808594 C 1046.429688 356.050781 1047.210938 354.148438 1048.78125 350.390625 Z M 1011.214844 360.28125 C 1000.210938 360.28125 991.277344 351.328125 991.277344 340.324219 C 991.277344 329.316406 1000.230469 320.386719 1011.234375 320.386719 C 1022.242188 320.386719 1031.171875 329.335938 1031.171875 340.34375 C 1031.171875 351.347656 1022.242188 360.300781 1011.214844 360.28125 Z M 1011.214844 360.28125 " fill-opacity="1" fill-rule="nonzero"/><path fill="#005082" d="M 689.125 395.277344 L 684.519531 397.472656 C 682.71875 396.726562 681.796875 396.335938 679.996094 395.589844 L 678.292969 390.773438 C 675.179688 390.773438 675.179688 390.773438 672.066406 390.773438 L 670.359375 395.570312 C 668.558594 396.316406 667.636719 396.6875 665.835938 397.453125 L 661.234375 395.257812 C 659.039062 397.453125 659.019531 397.453125 656.828125 399.664062 L 659.019531 404.269531 C 658.277344 406.070312 657.886719 406.988281 657.140625 408.792969 L 652.324219 410.496094 C 652.324219 413.609375 652.324219 413.609375 652.324219 416.722656 L 657.121094 418.425781 C 657.867188 420.230469 658.238281 421.148438 659 422.953125 L 656.789062 427.574219 C 658.980469 429.765625 658.980469 429.785156 661.195312 431.980469 L 665.796875 429.785156 C 667.597656 430.53125 668.519531 430.921875 670.320312 431.667969 L 672.027344 436.484375 C 675.140625 436.484375 675.140625 436.484375 678.253906 436.484375 L 679.957031 431.6875 C 681.757812 430.941406 682.679688 430.570312 684.480469 429.804688 L 689.082031 432 C 691.277344 429.804688 691.296875 429.804688 693.492188 427.59375 L 691.296875 422.992188 C 692.042969 421.1875 692.433594 420.269531 693.175781 418.464844 L 697.996094 416.761719 C 697.996094 413.648438 697.996094 413.648438 697.996094 410.535156 L 693.195312 408.832031 C 692.453125 407.027344 692.082031 406.109375 691.316406 404.308594 L 693.511719 399.703125 C 691.316406 397.472656 691.316406 397.472656 689.125 395.277344 Z M 675.140625 423.207031 C 669.851562 423.207031 665.5625 418.917969 665.5625 413.609375 C 665.5625 408.300781 669.851562 404.03125 675.160156 404.03125 C 680.445312 404.03125 684.734375 408.320312 684.734375 413.628906 C 684.734375 418.917969 680.425781 423.207031 675.140625 423.207031 Z M 675.140625 423.207031 " fill-opacity="1" fill-rule="nonzero"/><path fill="#005082" d="M 817.382812 409.378906 C 817.382812 406.265625 817.382812 406.265625 817.382812 403.152344 L 812.585938 401.449219 C 811.84375 399.644531 811.46875 398.726562 810.707031 396.921875 L 812.898438 392.320312 C 810.707031 390.128906 810.707031 390.109375 808.492188 387.914062 L 803.890625 390.109375 C 802.089844 389.363281 801.167969 388.972656 799.367188 388.226562 L 797.664062 383.410156 C 794.546875 383.410156 794.546875 383.410156 791.433594 383.410156 L 789.730469 388.207031 C 787.929688 388.953125 787.007812 389.324219 785.207031 390.089844 L 780.605469 387.894531 C 778.410156 390.089844 778.390625 390.089844 776.199219 392.300781 L 778.390625 396.902344 C 777.648438 398.707031 777.253906 399.625 776.511719 401.429688 L 771.691406 403.132812 C 771.691406 406.246094 771.691406 406.246094 771.691406 409.359375 L 776.492188 411.0625 C 777.234375 412.867188 777.605469 413.785156 778.371094 415.585938 L 776.179688 420.191406 C 778.371094 422.382812 778.371094 422.402344 780.585938 424.597656 L 785.1875 422.402344 C 786.988281 423.148438 787.910156 423.539062 789.710938 424.285156 L 791.414062 429.101562 C 794.527344 429.101562 794.527344 429.101562 797.644531 429.101562 L 799.347656 424.304688 C 801.148438 423.558594 802.070312 423.1875 803.871094 422.421875 L 808.472656 424.617188 C 810.667969 422.421875 810.6875 422.421875 812.878906 420.210938 L 810.6875 415.605469 C 811.429688 413.804688 811.820312 412.886719 812.566406 411.082031 Z M 794.527344 415.824219 C 789.242188 415.824219 784.953125 411.535156 784.953125 406.226562 C 784.953125 400.917969 789.242188 396.648438 794.546875 396.648438 C 799.835938 396.648438 804.125 400.9375 804.125 406.246094 C 804.125 411.554688 799.816406 415.824219 794.527344 415.824219 Z M 794.527344 415.824219 " fill-opacity="1" fill-rule="nonzero"/><path fill="#005082" d="M 716.109375 286.484375 C 714.308594 287.230469 713.390625 287.601562 711.585938 288.363281 L 706.984375 286.171875 C 704.792969 288.363281 704.769531 288.363281 702.578125 290.578125 L 704.769531 295.179688 C 704.027344 296.980469 703.636719 297.902344 702.890625 299.703125 L 698.074219 301.40625 C 698.074219 304.523438 698.074219 304.523438 698.074219 307.636719 L 702.871094 309.339844 C 703.617188 311.140625 703.988281 312.0625 704.75 313.863281 L 702.558594 318.464844 C 704.75 320.660156 704.75 320.679688 706.964844 322.871094 L 711.566406 320.679688 C 713.371094 321.421875 714.289062 321.816406 716.089844 322.558594 L 717.796875 327.378906 C 720.910156 327.378906 720.910156 327.378906 724.023438 327.378906 L 725.726562 322.578125 C 727.527344 321.835938 728.449219 321.460938 730.25 320.699219 L 734.855469 322.890625 C 737.046875 320.699219 737.066406 320.699219 739.261719 318.484375 L 737.066406 313.882812 C 737.8125 312.082031 738.203125 311.160156 738.945312 309.359375 L 743.765625 307.65625 C 743.765625 304.542969 743.765625 304.542969 743.765625 301.425781 L 738.964844 299.722656 C 738.222656 297.921875 737.851562 297 737.085938 295.199219 L 739.28125 290.597656 C 737.085938 288.402344 737.085938 288.382812 734.875 286.191406 L 730.269531 288.382812 C 728.46875 287.640625 727.546875 287.25 725.746094 286.503906 L 724.042969 281.6875 C 720.929688 281.6875 720.929688 281.6875 717.816406 281.6875 Z M 730.507812 304.542969 C 730.507812 309.828125 726.21875 314.117188 720.910156 314.117188 C 715.621094 314.117188 711.332031 309.828125 711.332031 304.523438 C 711.332031 299.214844 715.621094 294.945312 720.929688 294.945312 C 726.21875 294.964844 730.507812 299.253906 730.507812 304.542969 Z M 730.507812 304.542969 " fill-opacity="1" fill-rule="nonzero"/><path fill="#005082" d="M 665.875 269.523438 L 459.394531 269.386719 C 455.613281 269.386719 452.539062 272.441406 452.539062 276.242188 L 452.363281 513.121094 C 452.363281 516.898438 455.417969 519.976562 459.214844 519.976562 L 892.824219 520.289062 C 896.605469 520.289062 899.679688 517.234375 899.679688 513.433594 L 899.757812 398.292969 L 886.050781 398.292969 L 886.027344 401.191406 L 885.949219 506.578125 L 466.050781 506.285156 L 466.167969 332.136719 L 638.144531 332.253906 L 638.144531 332.292969 L 679.175781 332.3125 L 679.175781 318.601562 L 663.191406 318.582031 C 663.191406 318.5625 663.210938 318.542969 663.210938 318.542969 L 466.226562 318.425781 L 466.246094 283.117188 L 678.429688 283.273438 C 678.429688 283.253906 678.449219 283.234375 678.449219 283.234375 L 690.160156 283.234375 L 690.160156 269.523438 Z M 665.875 269.523438 " fill-opacity="1" fill-rule="nonzero"/><g clip-path="url(#4f28fb3425)"><path fill="#005082" d="M 935.34375 387.582031 L 935.226562 542.125 L 400.835938 541.753906 L 401.050781 240.402344 C 401.050781 228.628906 410.625 219.074219 422.398438 219.09375 L 708.824219 219.289062 L 708.824219 219.40625 L 722.828125 219.425781 L 722.847656 199.722656 L 422.417969 199.507812 C 399.855469 199.488281 381.484375 217.839844 381.464844 240.402344 L 381.230469 593.144531 C 381.210938 615.707031 399.5625 634.078125 422.121094 634.097656 L 592.121094 634.214844 L 574.453125 684.839844 L 526.84375 684.800781 C 521.4375 684.800781 517.050781 689.1875 517.050781 694.59375 C 517.050781 700 521.4375 704.386719 526.84375 704.386719 L 795.898438 704.582031 C 801.304688 704.582031 805.691406 700.195312 805.691406 694.789062 C 805.691406 689.382812 801.304688 684.996094 795.898438 684.996094 L 743.214844 684.957031 L 725.609375 634.3125 L 913.839844 634.449219 C 936.402344 634.46875 954.773438 616.117188 954.792969 593.554688 L 954.929688 385.761719 L 935.421875 385.742188 Z M 722.183594 684.15625 L 595.449219 684.058594 L 612.800781 634.332031 L 704.890625 634.390625 Z M 935.1875 593.535156 C 935.1875 605.304688 925.609375 614.863281 913.839844 614.84375 L 422.121094 614.492188 C 410.351562 614.492188 400.792969 604.914062 400.816406 593.144531 L 400.835938 561.320312 L 935.226562 561.691406 Z M 935.1875 593.535156 " fill-opacity="1" fill-rule="nonzero"/></g><path fill="#005082" d="M 497.09375 371.148438 L 634.558594 371.148438 L 634.558594 378.984375 L 497.09375 378.984375 Z M 497.09375 371.148438 " fill-opacity="1" fill-rule="nonzero"/><path fill="#005082" d="M 497.074219 416.175781 L 634.539062 416.175781 L 634.539062 424.007812 L 497.074219 424.007812 Z M 497.074219 416.175781 " fill-opacity="1" fill-rule="nonzero"/><path fill="#005082" d="M 497.035156 465.136719 L 634.5 465.136719 L 634.5 472.972656 L 497.035156 472.972656 Z M 497.035156 465.136719 " fill-opacity="1" fill-rule="nonzero"/><path fill="#005082" d="M 670.65625 588.445312 C 670.65625 589.375 670.5625 590.300781 670.382812 591.214844 C 670.199219 592.128906 669.929688 593.015625 669.574219 593.878906 C 669.21875 594.738281 668.78125 595.558594 668.261719 596.332031 C 667.742188 597.105469 667.15625 597.824219 666.496094 598.484375 C 665.835938 599.144531 665.121094 599.730469 664.34375 600.25 C 663.570312 600.765625 662.75 601.203125 661.890625 601.5625 C 661.027344 601.917969 660.140625 602.1875 659.226562 602.371094 C 658.3125 602.550781 657.386719 602.644531 656.457031 602.644531 C 655.523438 602.644531 654.601562 602.550781 653.683594 602.371094 C 652.769531 602.1875 651.882812 601.917969 651.023438 601.5625 C 650.160156 601.203125 649.34375 600.765625 648.566406 600.25 C 647.792969 599.730469 647.074219 599.144531 646.414062 598.484375 C 645.757812 597.824219 645.167969 597.105469 644.648438 596.332031 C 644.132812 595.558594 643.695312 594.738281 643.335938 593.878906 C 642.980469 593.015625 642.710938 592.128906 642.53125 591.214844 C 642.347656 590.300781 642.257812 589.375 642.257812 588.445312 C 642.257812 587.511719 642.347656 586.589844 642.53125 585.671875 C 642.710938 584.757812 642.980469 583.871094 643.335938 583.011719 C 643.695312 582.148438 644.132812 581.332031 644.648438 580.554688 C 645.167969 579.78125 645.757812 579.0625 646.414062 578.402344 C 647.074219 577.746094 647.792969 577.15625 648.566406 576.636719 C 649.34375 576.121094 650.160156 575.683594 651.023438 575.324219 C 651.882812 574.96875 652.769531 574.699219 653.683594 574.515625 C 654.601562 574.335938 655.523438 574.246094 656.457031 574.246094 C 657.386719 574.246094 658.3125 574.335938 659.226562 574.515625 C 660.140625 574.699219 661.027344 574.96875 661.890625 575.324219 C 662.75 575.683594 663.570312 576.121094 664.34375 576.636719 C 665.121094 577.15625 665.835938 577.746094 666.496094 578.402344 C 667.15625 579.0625 667.742188 579.78125 668.261719 580.554688 C 668.78125 581.332031 669.21875 582.148438 669.574219 583.011719 C 669.929688 583.871094 670.199219 584.757812 670.382812 585.671875 C 670.5625 586.589844 670.65625 587.511719 670.65625 588.445312 Z M 670.65625 588.445312 " fill-opacity="1" fill-rule="nonzero"/><g clip-path="url(#1b117743e2)"><path fill="#ffffff" d="M 69.550781 46.65625 L 312.550781 46.65625 L 312.550781 289.65625 L 69.550781 289.65625 Z M 69.550781 46.65625 " fill-opacity="1" fill-rule="nonzero"/></g></svg>