<svg xmlns="http://www.w3.org/2000/svg" xmlns:xlink="http://www.w3.org/1999/xlink" width="1920" zoomAndPan="magnify" viewBox="0 0 1440 809.999993" height="1080" preserveAspectRatio="xMidYMid meet" version="1.0"><defs><clipPath id="c49ec67111"><path d="M 711 61.265625 L 1068 61.265625 L 1068 417 L 711 417 Z M 711 61.265625 " clip-rule="nonzero"/></clipPath><clipPath id="6105d367a5"><path d="M 552 646 L 641 646 L 641 749.015625 L 552 749.015625 Z M 552 646 " clip-rule="nonzero"/></clipPath><clipPath id="c7a20e8aaf"><path d="M 690 565 L 778 565 L 778 749.015625 L 690 749.015625 Z M 690 565 " clip-rule="nonzero"/></clipPath><clipPath id="05785f5876"><path d="M 828 474 L 916 474 L 916 749.015625 L 828 749.015625 Z M 828 474 " clip-rule="nonzero"/></clipPath><clipPath id="050a6b957d"><path d="M 69.550781 46.65625 L 312.550781 46.65625 L 312.550781 289.65625 L 69.550781 289.65625 Z M 69.550781 46.65625 " clip-rule="nonzero"/></clipPath></defs><rect x="-144" width="1728" fill="#ffffff" y="-80.999999" height="971.999992" fill-opacity="1"/><rect x="-144" width="1728" fill="#ffffff" y="-80.999999" height="971.999992" fill-opacity="1"/><g clip-path="url(#c49ec67111)"><path fill="#005082" d="M 1032.785156 60.640625 L 1009.828125 60.640625 L 1009.828125 106.554688 C 1009.828125 108.253906 1010.242188 109.824219 1010.910156 111.28125 L 961.378906 157.519531 C 934.796875 133.082031 899.464844 118.03125 860.609375 118.03125 C 778.332031 118.03125 711.390625 184.972656 711.390625 267.253906 C 711.390625 349.53125 778.332031 416.472656 860.609375 416.472656 C 942.886719 416.472656 1009.828125 349.53125 1009.828125 267.253906 C 1009.828125 232.082031 997.523438 199.769531 977.09375 174.230469 L 1037.308594 118.03125 L 1067.222656 118.03125 L 1067.222656 95.074219 L 1032.785156 95.074219 Z M 986.871094 267.253906 C 986.871094 336.871094 930.226562 393.515625 860.609375 393.515625 C 790.992188 393.515625 734.347656 336.871094 734.347656 267.253906 C 734.347656 197.636719 790.992188 140.988281 860.609375 140.988281 C 892.851562 140.988281 922.214844 153.238281 944.5625 173.199219 L 927.746094 188.890625 C 909.667969 173.382812 886.242188 163.945312 860.609375 163.945312 C 803.652344 163.945312 757.304688 210.296875 757.304688 267.253906 C 757.304688 324.207031 803.652344 370.558594 860.609375 370.558594 C 917.566406 370.558594 963.914062 324.207031 963.914062 267.253906 C 963.914062 244.179688 956.214844 222.910156 943.382812 205.703125 L 960.242188 189.96875 C 976.863281 211.351562 986.871094 238.132812 986.871094 267.253906 Z M 940.957031 267.253906 C 940.957031 311.558594 904.917969 347.601562 860.609375 347.601562 C 816.300781 347.601562 780.261719 311.558594 780.261719 267.253906 C 780.261719 222.945312 816.300781 186.902344 860.609375 186.902344 C 879.617188 186.902344 897.089844 193.570312 910.863281 204.648438 L 893.78125 220.582031 C 884.394531 213.902344 872.996094 209.859375 860.609375 209.859375 C 828.964844 209.859375 803.21875 235.605469 803.21875 267.253906 C 803.21875 298.898438 828.964844 324.644531 860.609375 324.644531 C 892.253906 324.644531 918 298.898438 918 267.253906 C 918 256.289062 914.753906 246.132812 909.394531 237.421875 L 926.519531 221.429688 C 935.597656 234.445312 940.957031 250.21875 940.957031 267.253906 Z M 895.042969 267.253906 C 895.042969 286.238281 879.59375 301.6875 860.609375 301.6875 C 841.625 301.6875 826.175781 286.238281 826.175781 267.253906 C 826.175781 248.265625 841.625 232.816406 860.609375 232.816406 C 866.324219 232.816406 871.640625 234.355469 876.390625 236.824219 L 852.78125 258.863281 L 868.4375 275.644531 L 892.140625 253.511719 C 893.988281 257.726562 895.042969 262.363281 895.042969 267.253906 Z M 895.042969 267.253906 " fill-opacity="1" fill-rule="nonzero"/></g><path fill="#005082" d="M 391.414062 596.914062 C 375.414062 610.632812 372.785156 634.566406 385.433594 651.4375 C 392.066406 660.289062 402.167969 666.039062 413.164062 667.246094 C 414.601562 667.40625 416.046875 667.484375 417.492188 667.484375 C 427.019531 667.484375 436.351562 664.078125 443.628906 657.832031 L 500.78125 608.851562 C 501.941406 607.855469 502.894531 606.636719 503.582031 605.273438 L 545.375 521.675781 L 568.46875 527.449219 L 552.226562 559.921875 C 547.703125 568.964844 546.96875 579.226562 550.171875 588.824219 C 553.363281 598.40625 560.113281 606.191406 569.160156 610.710938 C 587.109375 619.6875 609 613.066406 618.953125 595.628906 L 652.480469 536.953125 C 653.949219 534.378906 654.375 531.351562 653.652344 528.46875 L 642.171875 482.554688 C 641.21875 478.746094 638.386719 475.691406 634.667969 474.453125 L 576.6875 455.121094 L 591.828125 409.691406 L 625.90625 426.722656 C 629.707031 428.617188 634.253906 428.261719 637.707031 425.792969 L 695.214844 384.722656 C 703.664062 378.6875 709.011719 369.285156 709.863281 358.941406 C 710.722656 348.589844 707.003906 338.441406 699.65625 331.097656 C 687.328125 318.757812 667.519531 317.34375 653.570312 327.824219 L 631.269531 344.550781 L 590.449219 311.894531 C 608.035156 299.414062 619.5625 278.9375 619.5625 255.773438 C 619.5625 217.792969 588.671875 186.902344 550.691406 186.902344 C 512.707031 186.902344 481.820312 217.792969 481.820312 255.773438 C 481.820312 275.4375 490.152344 293.160156 503.410156 305.71875 L 420.398438 336.847656 C 417.6875 337.867188 415.449219 339.878906 414.164062 342.460938 L 381.128906 408.53125 C 376.410156 417.964844 376.238281 428.871094 380.648438 438.453125 C 385.054688 448.027344 393.445312 454.984375 403.671875 457.542969 C 419.480469 461.480469 435.6875 454.066406 442.988281 439.464844 L 466.769531 391.886719 L 486.351562 386.996094 L 459.585938 458.359375 C 458.667969 460.816406 458.621094 463.523438 459.445312 466.015625 L 469.59375 496.457031 L 449.253906 547.328125 Z M 550.691406 209.859375 C 576.011719 209.859375 596.605469 230.453125 596.605469 255.773438 C 596.605469 281.09375 576.011719 301.6875 550.691406 301.6875 C 525.367188 301.6875 504.777344 281.09375 504.777344 255.773438 C 504.777344 230.453125 525.367188 209.859375 550.691406 209.859375 Z M 469.523438 558.484375 L 492.480469 501.09375 C 493.480469 498.566406 493.574219 495.777344 492.710938 493.195312 L 482.519531 462.617188 L 515.53125 374.601562 C 517.023438 370.605469 516.183594 366.105469 513.351562 362.925781 C 510.503906 359.734375 506.140625 358.378906 501.996094 359.425781 L 456.082031 370.902344 C 452.835938 371.71875 450.101562 373.910156 448.597656 376.90625 L 422.453125 429.203125 C 419.996094 434.117188 414.554688 436.605469 409.238281 435.273438 C 405.808594 434.414062 402.984375 432.085938 401.503906 428.859375 C 400.023438 425.632812 400.078125 421.972656 401.664062 418.804688 L 432.679688 356.761719 L 518.332031 324.644531 L 569.617188 324.644531 L 623.863281 368.046875 C 627.941406 371.316406 633.726562 371.398438 637.925781 368.261719 L 667.335938 346.203125 C 672.210938 342.5625 679.121094 343.046875 683.414062 347.351562 C 686.019531 349.957031 687.285156 353.398438 686.972656 357.070312 C 686.675781 360.734375 684.863281 363.925781 681.867188 366.070312 L 629.984375 403.136719 L 590.257812 383.265625 C 587.28125 381.773438 583.804688 381.660156 580.730469 382.933594 C 577.652344 384.207031 575.289062 386.753906 574.230469 389.902344 L 551.273438 458.773438 C 549.265625 464.785156 552.515625 471.28125 558.527344 473.292969 L 621.421875 494.25 L 630.257812 529.582031 L 599.015625 584.265625 C 595.089844 591.128906 586.492188 593.746094 579.410156 590.199219 C 575.851562 588.421875 573.1875 585.355469 571.9375 581.582031 C 570.683594 577.804688 570.972656 573.761719 572.75 570.203125 L 595.386719 524.933594 C 596.949219 521.824219 597.003906 518.171875 595.546875 515.003906 C 594.089844 511.847656 591.277344 509.507812 587.902344 508.667969 L 541.988281 497.191406 C 536.753906 495.925781 531.335938 498.382812 528.9375 503.195312 L 484.058594 592.945312 L 428.671875 640.417969 C 425.035156 643.542969 420.410156 644.953125 415.644531 644.449219 C 410.871094 643.929688 406.65625 641.519531 403.789062 637.6875 C 398.382812 630.480469 399.496094 620.226562 406.347656 614.375 L 466.332031 562.960938 C 467.734375 561.722656 468.835938 560.195312 469.523438 558.484375 Z M 469.523438 558.484375 " fill-opacity="1" fill-rule="nonzero"/><g clip-path="url(#6105d367a5)"><path fill="#005082" d="M 608.082031 749.351562 L 608.082031 691.957031 L 621.855469 710.324219 L 640.222656 696.550781 L 605.785156 650.636719 C 601.457031 644.851562 591.75 644.851562 587.421875 650.636719 L 552.984375 696.550781 L 571.351562 710.324219 L 585.125 691.957031 L 585.125 749.351562 Z M 608.082031 749.351562 " fill-opacity="1" fill-rule="nonzero"/></g><g clip-path="url(#c7a20e8aaf)"><path fill="#005082" d="M 725.164062 570.285156 L 690.726562 616.199219 L 709.09375 629.972656 L 722.867188 611.609375 L 722.867188 749.351562 L 745.824219 749.351562 L 745.824219 611.609375 L 759.597656 629.972656 L 777.964844 616.199219 L 743.527344 570.285156 C 739.199219 564.5 729.492188 564.5 725.164062 570.285156 Z M 725.164062 570.285156 " fill-opacity="1" fill-rule="nonzero"/></g><g clip-path="url(#05785f5876)"><path fill="#005082" d="M 883.566406 749.351562 L 883.566406 519.78125 L 897.339844 538.144531 L 915.707031 524.371094 L 881.269531 478.457031 C 876.941406 472.671875 867.234375 472.671875 862.90625 478.457031 L 828.46875 524.371094 L 846.835938 538.144531 L 860.609375 519.78125 L 860.609375 749.351562 Z M 883.566406 749.351562 " fill-opacity="1" fill-rule="nonzero"/></g><g clip-path="url(#050a6b957d)"><path fill="#ffffff" d="M 69.550781 46.65625 L 312.550781 46.65625 L 312.550781 289.65625 L 69.550781 289.65625 Z M 69.550781 46.65625 " fill-opacity="1" fill-rule="nonzero"/></g></svg>