<svg xmlns="http://www.w3.org/2000/svg" xmlns:xlink="http://www.w3.org/1999/xlink" width="1920" zoomAndPan="magnify" viewBox="0 0 1440 809.999993" height="1080" preserveAspectRatio="xMidYMid meet" version="1.0"><defs><clipPath id="812fd9269d"><path d="M 412.980469 106 L 1027.160156 106 L 1027.160156 705.429688 L 412.980469 705.429688 Z M 412.980469 106 " clip-rule="nonzero"/></clipPath><clipPath id="0ca86a922e"><path d="M 69.550781 46.65625 L 312.550781 46.65625 L 312.550781 289.65625 L 69.550781 289.65625 Z M 69.550781 46.65625 " clip-rule="nonzero"/></clipPath></defs><rect x="-144" width="1728" fill="#ffffff" y="-80.999999" height="971.999992" fill-opacity="1"/><rect x="-144" width="1728" fill="#ffffff" y="-80.999999" height="971.999992" fill-opacity="1"/><g clip-path="url(#812fd9269d)"><path fill="#005082" d="M 831.890625 513.132812 L 745.425781 563.496094 C 742.851562 564.996094 740.246094 566.21875 737.589844 567.175781 C 738.265625 565.574219 738.839844 563.890625 739.316406 562.121094 C 744.042969 544.476562 733.59375 526.066406 715.527344 520.210938 C 715.101562 520.074219 714.667969 519.964844 714.230469 519.882812 C 689.5625 515.4375 665.132812 506.601562 645.5 499.503906 C 638.636719 497.023438 632.15625 494.679688 626.625 492.886719 C 603.652344 485.433594 583.09375 494.542969 566.011719 504.429688 L 503.632812 540.546875 L 498.675781 531.792969 C 495.703125 526.542969 490.855469 522.757812 485.019531 521.140625 C 479.183594 519.527344 473.078125 520.273438 467.828125 523.242188 L 443.566406 536.972656 C 432.707031 543.121094 428.871094 556.957031 435.019531 567.820312 L 506.34375 693.84375 C 509.3125 699.09375 514.164062 702.878906 520 704.496094 C 522.019531 705.054688 524.066406 705.328125 526.101562 705.328125 C 529.953125 705.328125 533.753906 704.339844 537.1875 702.394531 L 561.449219 688.664062 C 572.3125 682.519531 576.144531 668.683594 570 657.820312 L 563.734375 646.75 L 575.683594 639.851562 L 685.535156 669.289062 C 691.84375 670.976562 698.117188 671.816406 704.292969 671.816406 C 716.785156 671.816406 728.851562 668.378906 739.886719 661.585938 L 896.804688 564.960938 C 912.09375 555.550781 916.984375 531.902344 907.070312 515.347656 C 902.28125 507.347656 882.699219 483.546875 831.890625 513.132812 Z M 551.695312 671.429688 L 527.433594 685.15625 C 526.5625 685.648438 525.714844 685.527344 525.289062 685.40625 C 524.863281 685.289062 524.074219 684.960938 523.582031 684.089844 L 452.253906 558.0625 C 451.5 556.730469 451.988281 554.964844 453.324219 554.210938 L 477.582031 540.480469 C 478.066406 540.207031 478.539062 540.125 478.941406 540.125 C 479.261719 540.125 479.539062 540.175781 479.726562 540.230469 C 480.15625 540.347656 480.945312 540.679688 481.4375 541.546875 L 552.761719 667.574219 C 553.519531 668.90625 553.027344 670.671875 551.695312 671.429688 Z M 886.421875 548.09375 L 729.503906 644.714844 C 717.605469 652.042969 704.539062 653.875 690.664062 650.15625 L 576.847656 619.65625 C 574.308594 618.976562 571.609375 619.332031 569.332031 620.648438 L 553.980469 629.511719 L 513.386719 557.785156 L 575.933594 521.570312 C 589.910156 513.480469 604.980469 506.6875 620.511719 511.726562 C 625.730469 513.417969 631.773438 515.601562 638.765625 518.132812 C 658.910156 525.414062 683.929688 534.460938 709.976562 539.242188 C 717.796875 542.054688 722.167969 549.589844 720.183594 556.996094 C 718.074219 564.867188 712.183594 568.300781 702.671875 567.226562 C 690.070312 564.628906 678.050781 561.199219 665.339844 557.566406 C 659.253906 555.832031 652.964844 554.035156 646.488281 552.300781 C 641.210938 550.882812 635.777344 554.019531 634.359375 559.304688 C 632.945312 564.585938 636.082031 570.015625 641.363281 571.433594 C 647.679688 573.125 653.890625 574.898438 659.898438 576.613281 C 673.136719 580.394531 685.640625 583.964844 699.144531 586.726562 C 699.210938 586.742188 699.472656 586.789062 699.539062 586.800781 L 710.296875 588.550781 C 726.90625 591.207031 741.65625 588.613281 755.390625 580.613281 L 841.859375 530.25 C 865.207031 516.652344 883.679688 514.84375 890.078125 525.527344 C 894.398438 532.738281 892.519531 544.339844 886.421875 548.09375 Z M 483.523438 562.878906 C 484.214844 567.613281 480.941406 572.007812 476.207031 572.699219 C 471.472656 573.394531 467.074219 570.117188 466.382812 565.382812 C 465.691406 560.648438 468.96875 556.25 473.703125 555.558594 C 478.433594 554.867188 482.832031 558.144531 483.523438 562.878906 Z M 616.425781 223.351562 C 619.539062 229.421875 621.253906 232.765625 621.664062 235.082031 C 622.070312 237.398438 621.601562 241.128906 620.753906 247.898438 C 620.523438 249.726562 620.269531 251.765625 619.996094 254.058594 C 618.351562 267.820312 625.808594 280.734375 638.546875 286.191406 C 640 286.8125 641.339844 287.378906 642.589844 287.90625 L 616.953125 342.96875 C 615.394531 346.3125 615.828125 350.246094 618.070312 353.175781 C 620.316406 356.105469 624 357.539062 627.636719 356.90625 L 655.261719 352.078125 L 669.351562 376.324219 C 671.128906 379.386719 674.394531 381.253906 677.910156 381.253906 C 678.0625 381.253906 678.210938 381.25 678.363281 381.242188 C 682.046875 381.074219 685.335938 378.871094 686.890625 375.53125 L 713.214844 318.992188 C 716.328125 318.085938 718.445312 317.59375 719.996094 317.59375 C 722.347656 317.59375 725.941406 318.703125 732.457031 320.714844 C 732.824219 320.828125 733.207031 320.945312 733.589844 321.0625 L 752.304688 364.519531 C 753.765625 367.910156 756.988281 370.203125 760.667969 370.476562 C 760.914062 370.496094 761.160156 370.507812 761.402344 370.507812 C 764.8125 370.507812 768 368.75 769.816406 365.824219 L 784.601562 341.996094 L 812.078125 347.621094 C 815.691406 348.367188 819.417969 347.03125 821.746094 344.171875 C 824.074219 341.308594 824.617188 337.390625 823.160156 334.003906 L 802.375 285.746094 C 814.539062 280.066406 821.601562 267.476562 819.996094 254.054688 C 819.722656 251.765625 819.46875 249.726562 819.238281 247.898438 C 818.390625 241.128906 817.921875 237.398438 818.328125 235.082031 C 818.738281 232.765625 820.453125 229.421875 823.566406 223.351562 C 824.40625 221.710938 825.34375 219.882812 826.386719 217.824219 C 832.640625 205.453125 830.050781 190.765625 819.941406 181.28125 C 818.261719 179.703125 816.753906 178.304688 815.402344 177.050781 C 810.402344 172.410156 807.644531 169.855469 806.46875 167.816406 C 805.292969 165.78125 804.457031 162.117188 802.941406 155.464844 C 802.53125 153.667969 802.074219 151.664062 801.546875 149.417969 C 798.382812 135.921875 786.960938 126.335938 773.121094 125.566406 C 770.816406 125.4375 768.765625 125.335938 766.921875 125.246094 C 760.109375 124.90625 756.355469 124.71875 754.144531 123.914062 C 751.933594 123.109375 748.941406 120.839844 743.503906 116.722656 C 742.03125 115.605469 740.394531 114.367188 738.546875 112.984375 C 727.449219 104.675781 712.539062 104.675781 701.441406 112.984375 C 699.59375 114.367188 697.957031 115.605469 696.488281 116.722656 C 691.050781 120.839844 688.050781 123.109375 685.84375 123.914062 C 683.632812 124.71875 679.878906 124.90625 673.066406 125.246094 C 671.222656 125.335938 669.171875 125.4375 666.867188 125.566406 C 653.027344 126.335938 641.601562 135.921875 638.441406 149.417969 C 637.914062 151.667969 637.457031 153.667969 637.046875 155.46875 C 635.53125 162.117188 634.695312 165.78125 633.519531 167.820312 C 632.34375 169.855469 629.585938 172.410156 624.585938 177.050781 C 623.234375 178.304688 621.726562 179.703125 620.042969 181.28125 C 609.9375 190.769531 607.347656 205.453125 613.601562 217.824219 C 614.648438 219.882812 615.585938 221.710938 616.425781 223.351562 Z M 676.945312 349.972656 L 668.921875 336.160156 C 666.839844 332.574219 662.742188 330.675781 658.652344 331.378906 L 642.917969 334.128906 L 659.433594 298.660156 C 660.515625 300.242188 661.777344 302.191406 663.355469 304.636719 C 664.355469 306.183594 665.472656 307.910156 666.734375 309.839844 C 671.953125 317.820312 680.210938 322.722656 689.175781 323.703125 Z M 781.816406 321.207031 C 777.753906 320.371094 773.601562 322.164062 771.417969 325.6875 L 762.996094 339.257812 L 755.863281 322.703125 C 762.828125 320.722656 769.042969 316.296875 773.261719 309.84375 C 774.527344 307.910156 775.640625 306.1875 776.640625 304.636719 C 780.339844 298.90625 782.378906 295.746094 784.183594 294.238281 C 784.246094 294.183594 784.328125 294.128906 784.398438 294.074219 L 797.464844 324.414062 Z M 633.605469 195.722656 C 635.257812 194.171875 636.734375 192.800781 638.0625 191.570312 C 651.316406 179.273438 652.34375 177.496094 656.363281 159.871094 C 656.765625 158.105469 657.214844 156.140625 657.730469 153.933594 C 658.886719 148.996094 662.910156 145.625 667.972656 145.34375 C 670.234375 145.21875 672.246094 145.117188 674.054688 145.027344 C 692.109375 144.125 694.039062 143.425781 708.449219 132.507812 C 709.894531 131.414062 711.5 130.195312 713.3125 128.839844 C 717.375 125.800781 722.621094 125.796875 726.679688 128.839844 C 728.496094 130.195312 730.101562 131.414062 731.546875 132.507812 C 745.957031 143.425781 747.882812 144.125 765.941406 145.027344 C 767.75 145.117188 769.761719 145.21875 772.023438 145.34375 C 777.089844 145.625 781.109375 148.996094 782.265625 153.933594 C 782.78125 156.140625 783.230469 158.105469 783.632812 159.871094 C 787.65625 177.496094 788.679688 179.273438 801.933594 191.570312 C 803.261719 192.800781 804.742188 194.171875 806.390625 195.722656 C 810.089844 199.195312 811 204.359375 808.714844 208.886719 C 807.691406 210.910156 806.769531 212.703125 805.945312 214.316406 C 797.695312 230.402344 797.339844 232.421875 799.589844 250.363281 C 799.816406 252.160156 800.066406 254.160156 800.335938 256.410156 C 800.9375 261.445312 798.3125 265.988281 793.648438 267.984375 C 791.566406 268.875 789.710938 269.660156 788.039062 270.363281 C 771.378906 277.382812 769.808594 278.703125 760 293.894531 C 759.015625 295.414062 757.925781 297.109375 756.683594 299 C 753.910156 303.246094 748.980469 305.042969 744.125 303.574219 C 741.957031 302.917969 740.03125 302.324219 738.300781 301.792969 C 729.664062 299.125 724.832031 297.792969 719.996094 297.792969 C 715.164062 297.792969 710.332031 299.125 701.695312 301.792969 C 699.964844 302.324219 698.039062 302.917969 695.871094 303.574219 C 691.019531 305.039062 686.085938 303.25 683.308594 299 C 682.070312 297.109375 680.976562 295.414062 679.996094 293.890625 C 670.1875 278.703125 668.613281 277.382812 651.953125 270.363281 C 650.285156 269.660156 648.425781 268.878906 646.34375 267.988281 C 641.683594 265.992188 639.0625 261.445312 639.660156 256.410156 C 639.929688 254.160156 640.179688 252.160156 640.40625 250.363281 C 642.65625 232.425781 642.300781 230.40625 634.050781 214.316406 C 633.222656 212.707031 632.304688 210.910156 631.28125 208.890625 C 628.996094 204.359375 629.90625 199.195312 633.605469 195.722656 Z M 720 284.15625 C 757.957031 284.15625 788.835938 253.273438 788.835938 215.316406 C 788.835938 177.359375 757.957031 146.476562 720 146.476562 C 682.042969 146.476562 651.160156 177.359375 651.160156 215.316406 C 651.160156 253.273438 682.042969 284.15625 720 284.15625 Z M 720 166.285156 C 747.035156 166.285156 769.03125 188.28125 769.03125 215.316406 C 769.03125 242.351562 747.035156 264.347656 720 264.347656 C 692.964844 264.347656 670.96875 242.351562 670.96875 215.316406 C 670.96875 188.28125 692.960938 166.285156 720 166.285156 Z M 701.449219 240.128906 L 685.289062 223.96875 C 681.421875 220.101562 681.421875 213.828125 685.289062 209.964844 C 689.15625 206.097656 695.425781 206.097656 699.292969 209.964844 L 708.785156 219.453125 L 741.050781 190.171875 C 745.101562 186.496094 751.363281 186.796875 755.039062 190.851562 C 758.714844 194.902344 758.410156 201.164062 754.359375 204.839844 L 715.109375 240.460938 C 713.214844 242.179688 710.832031 243.03125 708.453125 243.03125 C 705.914062 243.03125 703.378906 242.058594 701.449219 240.128906 Z M 938.394531 204.902344 C 889.53125 204.902344 849.777344 244.652344 849.777344 293.515625 C 849.777344 342.378906 889.53125 382.132812 938.394531 382.132812 C 987.253906 382.132812 1027.007812 342.378906 1027.007812 293.515625 C 1027.007812 244.652344 987.253906 204.902344 938.394531 204.902344 Z M 938.394531 362.324219 C 900.453125 362.324219 869.585938 331.457031 869.585938 293.515625 C 869.585938 255.578125 900.453125 224.710938 938.394531 224.710938 C 976.332031 224.710938 1007.199219 255.578125 1007.199219 293.515625 C 1007.199219 331.457031 976.332031 362.324219 938.394531 362.324219 Z M 973.335938 310.75 C 974.242188 318.210938 972.21875 325.046875 967.488281 330.519531 C 963.027344 335.679688 956.175781 339.386719 948.296875 341.082031 L 948.296875 343.324219 C 948.296875 348.792969 943.863281 353.226562 938.394531 353.226562 C 932.925781 353.226562 928.492188 348.792969 928.492188 343.324219 L 928.492188 340.910156 C 916.019531 337.84375 906.523438 329.085938 903.535156 317.085938 C 902.210938 311.777344 905.441406 306.402344 910.746094 305.078125 C 916.050781 303.757812 921.429688 306.988281 922.75 312.292969 C 924.652344 319.917969 932.765625 322.46875 939.183594 322.289062 C 944.734375 322.160156 950.210938 320.214844 952.503906 317.5625 C 953.246094 316.707031 953.960938 315.511719 953.671875 313.136719 C 953.398438 310.886719 952.757812 305.617188 936.859375 303.003906 C 910.855469 298.734375 906.285156 283.929688 905.875 275.480469 C 905.207031 261.78125 914.230469 250.253906 928.488281 246.304688 L 928.488281 243.707031 C 928.488281 238.238281 932.921875 233.804688 938.390625 233.804688 C 943.863281 233.804688 948.296875 238.238281 948.296875 243.707031 L 948.296875 246.214844 C 957.488281 248.660156 966.085938 254.796875 970.695312 265.773438 C 972.8125 270.816406 970.441406 276.617188 965.398438 278.738281 C 960.355469 280.855469 954.550781 278.484375 952.433594 273.441406 C 948.710938 264.578125 939.484375 264.078125 934.617188 265.183594 C 932.433594 265.679688 925.332031 267.816406 925.660156 274.523438 C 925.746094 276.335938 925.980469 281.148438 940.070312 283.460938 C 960.347656 286.789062 971.542969 295.972656 973.335938 310.75 Z M 501.605469 382.132812 C 550.46875 382.132812 590.21875 342.378906 590.21875 293.515625 C 590.21875 244.65625 550.46875 204.902344 501.605469 204.902344 C 452.742188 204.902344 412.992188 244.652344 412.992188 293.515625 C 412.992188 342.378906 452.742188 382.132812 501.605469 382.132812 Z M 501.605469 224.710938 C 539.546875 224.710938 570.414062 255.578125 570.414062 293.515625 C 570.414062 331.457031 539.546875 362.324219 501.605469 362.324219 C 463.664062 362.324219 432.796875 331.457031 432.796875 293.515625 C 432.796875 255.578125 463.664062 224.710938 501.605469 224.710938 Z M 462.554688 327.671875 C 461.222656 332.570312 463.015625 337.660156 467.121094 340.644531 C 471.222656 343.625 476.621094 343.761719 480.875 340.980469 L 501.605469 327.40625 L 522.347656 340.984375 C 524.382812 342.316406 526.683594 342.976562 528.976562 342.976562 C 531.472656 342.976562 533.957031 342.195312 536.09375 340.640625 C 540.199219 337.65625 541.988281 332.566406 540.660156 327.671875 L 534.15625 303.761719 L 553.472656 288.234375 C 557.429688 285.054688 558.972656 279.878906 557.402344 275.054688 C 555.835938 270.226562 551.546875 266.949219 546.476562 266.703125 L 521.726562 265.496094 L 512.929688 242.328125 C 511.128906 237.589844 506.6875 234.527344 501.609375 234.527344 C 496.53125 234.527344 492.089844 237.589844 490.289062 242.328125 L 481.492188 265.496094 L 456.742188 266.703125 C 451.671875 266.949219 447.382812 270.226562 445.8125 275.054688 C 444.246094 279.882812 445.789062 285.054688 449.742188 288.234375 L 469.058594 303.761719 Z M 487.484375 285.03125 C 492.292969 284.796875 496.507812 281.738281 498.21875 277.234375 L 501.605469 268.3125 L 504.996094 277.242188 C 506.707031 281.742188 510.917969 284.796875 515.726562 285.03125 L 525.261719 285.496094 L 517.824219 291.472656 C 514.066406 294.492188 512.457031 299.441406 513.722656 304.089844 L 516.226562 313.304688 L 508.238281 308.074219 C 506.226562 306.757812 503.917969 306.097656 501.605469 306.097656 C 499.296875 306.097656 496.988281 306.753906 494.972656 308.074219 L 486.988281 313.304688 L 489.492188 304.089844 C 490.753906 299.441406 489.144531 294.488281 485.394531 291.476562 L 477.953125 285.496094 Z M 616.046875 452.101562 C 619.914062 455.972656 619.914062 462.242188 616.046875 466.109375 C 614.113281 468.042969 611.578125 469.007812 609.042969 469.007812 C 606.507812 469.007812 603.976562 468.042969 602.039062 466.109375 L 555.027344 419.09375 C 551.160156 415.226562 551.160156 408.953125 555.027344 405.085938 C 558.894531 401.222656 565.164062 401.222656 569.03125 405.085938 Z M 720 392.449219 C 725.46875 392.449219 729.902344 396.886719 729.902344 402.355469 L 729.902344 468.84375 C 729.902344 474.3125 725.46875 478.746094 720 478.746094 C 714.527344 478.746094 710.09375 474.3125 710.09375 468.84375 L 710.09375 402.355469 C 710.09375 396.882812 714.527344 392.449219 720 392.449219 Z M 823.953125 452.101562 L 870.96875 405.085938 C 874.835938 401.222656 881.105469 401.222656 884.972656 405.085938 C 888.839844 408.957031 888.839844 415.226562 884.972656 419.09375 L 837.957031 466.109375 C 836.027344 468.042969 833.492188 469.007812 830.957031 469.007812 C 828.421875 469.007812 825.886719 468.042969 823.953125 466.109375 C 820.085938 462.242188 820.085938 455.972656 823.953125 452.101562 Z M 823.953125 452.101562 " fill-opacity="1" fill-rule="nonzero"/></g><g clip-path="url(#0ca86a922e)"><path fill="#ffffff" d="M 69.550781 46.65625 L 312.550781 46.65625 L 312.550781 289.65625 L 69.550781 289.65625 Z M 69.550781 46.65625 " fill-opacity="1" fill-rule="nonzero"/></g></svg>