<svg xmlns="http://www.w3.org/2000/svg" xmlns:xlink="http://www.w3.org/1999/xlink" width="1920" zoomAndPan="magnify" viewBox="0 0 1440 809.999993" height="1080" preserveAspectRatio="xMidYMid meet" version="1.0"><defs><clipPath id="5d218388e9"><path d="M 335.574219 61.8125 L 1104.324219 61.8125 L 1104.324219 748.0625 L 335.574219 748.0625 Z M 335.574219 61.8125 " clip-rule="nonzero"/></clipPath><clipPath id="bf6deea5ee"><path d="M 69.550781 46.65625 L 312.550781 46.65625 L 312.550781 289.65625 L 69.550781 289.65625 Z M 69.550781 46.65625 " clip-rule="nonzero"/></clipPath></defs><rect x="-144" width="1728" fill="#ffffff" y="-80.999999" height="971.999992" fill-opacity="1"/><rect x="-144" width="1728" fill="#ffffff" y="-80.999999" height="971.999992" fill-opacity="1"/><g clip-path="url(#5d218388e9)"><path fill="#005082" d="M 997.878906 386.515625 C 993.597656 361.109375 971.644531 341.90625 936.15625 333.105469 C 921.921875 329.574219 907.699219 327.070312 893.519531 325.519531 C 915.070312 310.894531 929.75 282.230469 929.75 249.332031 C 929.75 205.492188 903.394531 178.253906 860.960938 178.253906 C 830.109375 178.253906 807.769531 192.667969 797.867188 217.382812 C 796.976562 217.144531 796.09375 216.902344 795.191406 216.679688 C 780.957031 213.148438 766.730469 210.644531 752.550781 209.09375 C 774.105469 194.46875 788.785156 165.808594 788.785156 132.90625 C 788.785156 89.066406 762.425781 61.828125 720 61.828125 C 677.570312 61.828125 651.210938 89.066406 651.210938 132.90625 C 651.210938 165.730469 665.820312 194.339844 687.289062 208.996094 C 672.988281 210.539062 658.78125 213.085938 644.703125 216.707031 C 643.839844 216.925781 642.992188 217.167969 642.136719 217.402344 C 632.238281 192.675781 609.894531 178.253906 579.035156 178.253906 C 536.601562 178.253906 510.246094 205.488281 510.246094 249.332031 C 510.246094 282.152344 524.855469 310.761719 546.324219 325.417969 C 532.023438 326.964844 517.816406 329.511719 503.738281 333.128906 C 467.777344 342.371094 446.273438 361.152344 442.09375 386.527344 C 373.347656 426.234375 335.574219 478.640625 335.574219 534.625 C 335.574219 593.117188 376.582031 647.5 451.042969 687.757812 C 523.085938 726.707031 618.605469 748.160156 719.996094 748.160156 C 821.390625 748.160156 916.90625 726.707031 988.953125 687.757812 C 1063.414062 647.5 1104.417969 593.117188 1104.417969 534.625 C 1104.417969 478.636719 1066.640625 426.226562 997.878906 386.515625 Z M 973.863281 395.871094 L 973.863281 497.296875 L 941.726562 497.296875 L 941.726562 422.039062 C 941.726562 415.191406 936.175781 409.636719 929.324219 409.636719 C 922.476562 409.636719 916.925781 415.191406 916.925781 422.039062 L 916.925781 497.296875 L 856.597656 497.296875 C 852.101562 475.167969 833.949219 457.941406 804.996094 448.46875 L 804.996094 422.035156 C 804.996094 415.1875 799.445312 409.636719 792.59375 409.636719 C 785.746094 409.636719 780.195312 415.1875 780.195312 422.035156 L 780.195312 442.332031 C 770.96875 440.488281 761.75 439.070312 752.550781 438.0625 C 774.105469 423.4375 788.785156 394.773438 788.785156 361.875 C 788.785156 360.566406 788.757812 359.277344 788.710938 357.996094 C 789.742188 357.703125 790.785156 357.421875 791.84375 357.148438 C 836.882812 345.566406 883.429688 345.578125 930.1875 357.175781 C 946.5 361.226562 973.863281 371.632812 973.863281 395.871094 Z M 788.359375 522.179688 C 781.511719 522.179688 775.960938 527.734375 775.960938 534.582031 L 775.960938 609.839844 L 664.03125 609.839844 L 664.03125 534.582031 C 664.03125 527.734375 658.480469 522.179688 651.632812 522.179688 C 644.785156 522.179688 639.230469 527.734375 639.230469 534.582031 L 639.230469 609.839844 L 607.09375 609.839844 L 607.09375 508.414062 C 607.09375 485.714844 630.902344 474.832031 650.878906 469.695312 C 695.917969 458.113281 742.464844 458.125 789.222656 469.722656 C 805.535156 473.769531 832.902344 484.175781 832.902344 508.414062 L 832.902344 609.839844 L 800.761719 609.839844 L 800.761719 534.582031 C 800.761719 527.730469 795.207031 522.179688 788.359375 522.179688 Z M 719.996094 315.601562 C 736.425781 315.601562 763.984375 321.613281 763.984375 361.878906 C 763.984375 395.902344 744.25 423.585938 719.996094 423.585938 C 695.742188 423.585938 676.011719 395.902344 676.011719 361.878906 C 676.011719 321.613281 703.570312 315.601562 719.996094 315.601562 Z M 860.960938 203.058594 C 877.390625 203.058594 904.949219 209.066406 904.949219 249.332031 C 904.949219 283.359375 885.214844 311.042969 860.960938 311.042969 C 836.707031 311.042969 816.976562 283.359375 816.976562 249.332031 C 816.976562 209.070312 844.535156 203.058594 860.960938 203.058594 Z M 676.011719 132.90625 C 676.011719 92.644531 703.570312 86.632812 719.996094 86.632812 C 736.425781 86.632812 763.984375 92.644531 763.984375 132.90625 C 763.984375 166.933594 744.25 194.617188 719.996094 194.617188 C 695.742188 194.617188 676.011719 166.933594 676.011719 132.90625 Z M 650.875 240.726562 C 695.917969 229.144531 742.460938 229.152344 789.21875 240.753906 C 790.3125 241.023438 791.394531 241.308594 792.464844 241.605469 C 792.273438 244.121094 792.175781 246.695312 792.175781 249.332031 C 792.175781 282.15625 806.785156 310.765625 828.253906 325.421875 C 813.949219 326.964844 799.742188 329.511719 785.667969 333.132812 C 785.242188 333.242188 784.824219 333.359375 784.398438 333.472656 C 775.265625 306.59375 752.296875 290.796875 719.996094 290.796875 C 687.699219 290.796875 664.730469 306.589844 655.59375 333.464844 C 655.136719 333.347656 654.6875 333.21875 654.226562 333.105469 C 639.988281 329.574219 625.765625 327.070312 611.585938 325.519531 C 633.140625 310.894531 647.820312 282.230469 647.820312 249.332031 C 647.820312 246.703125 647.71875 244.140625 647.53125 241.632812 C 648.632812 241.320312 649.746094 241.015625 650.875 240.726562 Z M 535.046875 249.332031 C 535.046875 209.066406 562.605469 203.058594 579.03125 203.058594 C 595.460938 203.058594 623.019531 209.066406 623.019531 249.332031 C 623.019531 283.359375 603.285156 311.042969 579.03125 311.042969 C 554.777344 311.042969 535.046875 283.359375 535.046875 249.332031 Z M 466.128906 395.871094 C 466.128906 373.171875 489.9375 362.285156 509.914062 357.152344 C 554.953125 345.570312 601.496094 345.578125 648.257812 357.179688 C 649.277344 357.433594 650.285156 357.695312 651.285156 357.972656 C 651.238281 359.257812 651.210938 360.558594 651.210938 361.878906 C 651.210938 394.699219 665.820312 423.308594 687.289062 437.964844 C 678.082031 438.957031 668.914062 440.382812 659.796875 442.234375 L 659.796875 422.035156 C 659.796875 415.1875 654.246094 409.636719 647.398438 409.636719 C 640.550781 409.636719 634.996094 415.1875 634.996094 422.035156 L 634.996094 448.527344 C 605.65625 458.242188 587.773438 475.164062 583.371094 497.296875 L 523.070312 497.296875 L 523.070312 422.039062 C 523.070312 415.191406 517.515625 409.636719 510.667969 409.636719 C 503.820312 409.636719 498.269531 415.191406 498.269531 422.039062 L 498.269531 497.296875 L 466.128906 497.296875 Z M 977.160156 665.941406 C 908.671875 702.964844 817.34375 723.359375 719.996094 723.359375 C 622.648438 723.359375 531.320312 702.964844 462.835938 665.941406 C 396.765625 630.21875 360.375 583.582031 360.375 534.625 C 360.375 491.378906 388.949219 449.796875 441.328125 416.035156 L 441.328125 509.695312 C 441.328125 516.546875 446.882812 522.097656 453.730469 522.097656 L 582.292969 522.097656 L 582.292969 622.242188 C 582.292969 629.089844 587.847656 634.640625 594.695312 634.640625 L 845.300781 634.640625 C 852.148438 634.640625 857.699219 629.089844 857.699219 622.242188 L 857.699219 522.097656 L 986.265625 522.097656 C 993.113281 522.097656 998.664062 516.546875 998.664062 509.695312 L 998.664062 416.035156 C 1051.046875 449.796875 1079.617188 491.382812 1079.617188 534.625 C 1079.617188 583.582031 1043.230469 630.21875 977.160156 665.941406 Z M 977.160156 665.941406 " fill-opacity="1" fill-rule="nonzero"/></g><g clip-path="url(#bf6deea5ee)"><path fill="#ffffff" d="M 69.550781 46.65625 L 312.550781 46.65625 L 312.550781 289.65625 L 69.550781 289.65625 Z M 69.550781 46.65625 " fill-opacity="1" fill-rule="nonzero"/></g></svg>