<?xml version="1.0" encoding="UTF-8"?>
<svg id="Layer_2" data-name="Layer 2" xmlns="http://www.w3.org/2000/svg" viewBox="0 0 1078.77 204.6">
  <defs>
    <style>
      .cls-1 {
        fill: #23588b;
      }

      .cls-1, .cls-2, .cls-3 {
        stroke-width: 0px;
      }

      .cls-2 {
        fill: #00bbe2;
      }

      .cls-3 {
        fill: #21578a;
      }
    </style>
  </defs>
  <g id="Layer_1-2" data-name="Layer 1">
    <g>
      <g>
        <polygon class="cls-1" points="352.12 112.56 319.56 112.56 319.56 78.89 298.62 78.89 298.62 164.85 319.56 164.85 319.56 129.46 352.12 129.46 352.12 164.85 373.07 164.85 373.07 78.89 352.12 78.89 352.12 112.56"/>
        <path class="cls-1" d="m450.03,121.26c3.23-4.49,4.84-9.59,4.84-15.31,0-5.06-1.18-9.65-3.55-13.78-2.37-4.12-5.94-7.36-10.71-9.73-4.78-2.37-10.55-3.55-17.33-3.55h-35.15v85.96h20.94v-32.45h5.02l17.88,32.45h23.64l-19.84-34.04c6.29-1.88,11.04-5.06,14.26-9.55Zm-19.34-6.49c-1.92,1.88-4.8,2.82-8.64,2.82h-12.98v-21.31h12.98c3.83,0,6.71.94,8.64,2.82,1.92,1.88,2.87,4.45,2.87,7.71,0,3.43-.96,6.09-2.87,7.96Z"/>
        <path class="cls-1" d="m519.4,78.89l-31.1,85.96h21.92l5.15-15.19h32.08l5.14,15.19h22.17l-31.1-85.96h-24.25Zm1.47,54.61l10.53-31.47,10.66,31.47h-21.19Z"/>
        <path class="cls-1" d="m625.81,95.78c-4.49,0-8.53.88-12.12,2.63-3.59,1.76-6.45,4.15-8.57,7.16v-9.06h-20.94v68.33h20.94v-37.1c0-4.57,1.18-8.12,3.55-10.65,2.37-2.54,5.55-3.8,9.55-3.8s7.18,1.26,9.55,3.8c2.37,2.53,3.55,6.08,3.55,10.65v37.1h20.82v-39.92c0-9.06-2.39-16.18-7.16-21.37-4.78-5.18-11.16-7.78-19.17-7.78Z"/>
        <path class="cls-1" d="m713.73,106.2c-1.96-3.18-4.75-5.75-8.39-7.71s-7.86-2.94-12.67-2.94c-5.63,0-10.74,1.43-15.31,4.28-4.57,2.86-8.18,6.94-10.83,12.25-2.66,5.3-3.98,11.47-3.98,18.49s1.32,13.21,3.98,18.55c2.65,5.35,6.26,9.47,10.83,12.37s9.64,4.35,15.19,4.35c4.82,0,9.04-.98,12.68-2.94,3.63-1.96,6.47-4.53,8.51-7.71v9.67h20.94v-68.33h-20.94v9.67Zm-4.35,36.86c-2.9,3.02-6.43,4.54-10.59,4.54s-7.7-1.54-10.59-4.59c-2.89-3.06-4.35-7.21-4.35-12.43s1.45-9.33,4.35-12.3,6.43-4.47,10.59-4.47,7.69,1.51,10.59,4.53c2.89,3.02,4.35,7.15,4.35,12.37s-1.45,9.35-4.35,12.37Z"/>
        <rect class="cls-1" x="749.86" y="74.23" width="20.94" height="90.62"/>
        <polygon class="cls-1" points="817.45 139.26 801.66 96.52 778.27 96.52 806.06 162.53 790.39 197.3 812.92 197.3 855.78 96.52 833.13 96.52 817.45 139.26"/>
        <path class="cls-1" d="m889.09,145.75c-.98-.9-1.47-2.37-1.47-4.41v-27.43h13.72v-17.38h-13.72v-16.66h-20.94v16.66h-8.33v17.38h8.33v27.19c0,8.41,2.13,14.47,6.37,18.19,4.25,3.71,10.16,5.57,17.76,5.57h10.66v-17.76h-7.47c-2.28,0-3.92-.45-4.9-1.35Z"/>
        <path class="cls-1" d="m923.62,66.77c-3.67,0-6.67,1.08-9,3.25-2.32,2.16-3.49,4.87-3.49,8.14s1.16,5.86,3.49,8.02c2.33,2.16,5.33,3.24,9,3.24s6.55-1.08,8.88-3.24c2.32-2.16,3.49-4.84,3.49-8.02s-1.16-5.98-3.49-8.14c-2.33-2.16-5.29-3.25-8.88-3.25Z"/>
        <rect class="cls-1" x="913.09" y="96.52" width="20.94" height="68.33"/>
        <path class="cls-1" d="m978.97,113.42c5.39,0,9.02,2.61,10.9,7.84h22.29c-1.8-8.16-5.57-14.5-11.33-18.98s-12.92-6.73-21.49-6.73c-6.7,0-12.64,1.43-17.82,4.28-5.18,2.86-9.23,6.94-12.12,12.25-2.9,5.3-4.35,11.51-4.35,18.61s1.44,13.31,4.35,18.62c2.89,5.31,6.94,9.39,12.12,12.25,5.18,2.85,11.12,4.28,17.82,4.28,8.49,0,15.63-2.28,21.43-6.86,5.8-4.57,9.59-10.85,11.39-18.86h-22.29c-1.88,5.23-5.51,7.84-10.9,7.84-3.84,0-6.9-1.49-9.18-4.47-2.29-2.98-3.43-7.24-3.43-12.8s1.14-9.81,3.43-12.79c2.28-2.98,5.35-4.47,9.18-4.47Z"/>
        <path class="cls-1" d="m1075.03,133.69c-2.41-2.82-5.2-4.85-8.38-6.12-3.19-1.27-7.31-2.55-12.37-3.86-4.41-.98-7.66-1.96-9.74-2.94-2.08-.98-3.12-2.45-3.12-4.41,0-1.63.66-2.92,1.96-3.85,1.3-.94,3.18-1.41,5.63-1.41,2.86,0,5.16.69,6.92,2.08s2.8,3.27,3.13,5.63h19.35c-.74-7.02-3.58-12.66-8.52-16.9-4.94-4.25-11.69-6.37-20.26-6.37-5.8,0-10.8.94-15,2.81-4.2,1.88-7.39,4.43-9.55,7.66s-3.25,6.8-3.25,10.71c0,4.66,1.18,8.35,3.55,11.09,2.37,2.73,5.18,4.73,8.45,6s7.35,2.47,12.25,3.61c4.57,1.14,7.87,2.18,9.92,3.12s3.06,2.39,3.06,4.35c0,1.63-.72,2.96-2.15,3.98s-3.44,1.53-6.06,1.53c-2.86,0-5.27-.73-7.23-2.2-1.96-1.47-3.06-3.39-3.3-5.76h-20.7c.33,4.41,1.84,8.39,4.54,11.95,2.69,3.55,6.37,6.35,11.02,8.38,4.66,2.04,9.96,3.06,15.93,3.06,5.55,0,10.42-.9,14.63-2.69,4.2-1.8,7.43-4.27,9.68-7.41,2.24-3.14,3.37-6.71,3.37-10.72-.08-4.73-1.33-8.51-3.74-11.33Z"/>
      </g>
      <g>
        <path class="cls-3" d="m13.26,87.65S1.02,94.72.27,101.02c-.28,1.58-2.5,7.88,12.65,15.73,0,0,85.98,50.65,148.59,85.42,5.05,2.62,8.79,2.42,8.79,2.42,6.61,0,11.96-5.35,11.96-11.96v-53.13l-64.75-37.2,64.75-37.2V11.97C182.27,5.36,176.91,0,170.31,0c0,0-3.74-.2-8.79,2.42C98.9,37.19,12.93,87.84,12.93,87.84"/>
        <path class="cls-2" d="m117.22,102.28l-64.63-37.63c-23.46,13.65-39.67,23.2-39.67,23.2l.33-.19S1.02,94.72.27,101.02c-.28,1.58-2.5,7.88,12.65,15.73,0,0,16.06,9.46,39.35,23.01l64.94-37.49Z"/>
        <polygon class="cls-3" points="185.64 76.74 220.5 57.14 220.5 96.08 185.64 76.74"/>
        <polygon class="cls-2" points="198.11 108.03 198.11 130.68 217.19 119.36 198.11 108.03"/>
        <polygon class="cls-2" points="247.73 98.11 247.73 75.46 267.57 86.79 247.73 98.11"/>
        <polygon class="cls-3" points="251.8 122.28 251.8 152.05 226.35 137.17 251.8 122.28"/>
      </g>
    </g>
  </g>
</svg>