<svg xmlns="http://www.w3.org/2000/svg" xmlns:xlink="http://www.w3.org/1999/xlink" width="1920" zoomAndPan="magnify" viewBox="0 0 1440 809.999993" height="1080" preserveAspectRatio="xMidYMid meet" version="1.0"><defs><clipPath id="85eef0a2b0"><path d="M 525.90625 270 L 914.40625 270 L 914.40625 540 L 525.90625 540 Z M 525.90625 270 " clip-rule="nonzero"/></clipPath><clipPath id="8b9f2940d9"><path d="M 525.90625 460 L 914.40625 460 L 914.40625 728.992188 L 525.90625 728.992188 Z M 525.90625 460 " clip-rule="nonzero"/></clipPath><clipPath id="9df169c328"><path d="M 525.90625 89 L 914.40625 89 L 914.40625 350 L 525.90625 350 Z M 525.90625 89 " clip-rule="nonzero"/></clipPath><clipPath id="4d1e8f14cd"><path d="M 49.027344 103.5 L 292.027344 103.5 L 292.027344 346.5 L 49.027344 346.5 Z M 49.027344 103.5 " clip-rule="nonzero"/></clipPath></defs><rect x="-144" width="1728" fill="#ffffff" y="-80.999999" height="971.999992" fill-opacity="1"/><rect x="-144" width="1728" fill="#ffffff" y="-80.999999" height="971.999992" fill-opacity="1"/><g clip-path="url(#85eef0a2b0)"><path fill="#0097b2" d="M 525.917969 539.289062 L 603.171875 539.289062 L 719.996094 377.363281 L 836.816406 539.289062 L 914.070312 539.289062 L 719.996094 270.285156 L 525.917969 539.289062 " fill-opacity="1" fill-rule="nonzero"/></g><g clip-path="url(#8b9f2940d9)"><path fill="#0097b2" d="M 914.070312 729.019531 L 719.996094 460.015625 L 525.917969 729.019531 L 603.171875 729.019531 L 719.996094 567.09375 L 836.816406 729.019531 L 914.070312 729.019531 " fill-opacity="1" fill-rule="nonzero"/></g><g clip-path="url(#9df169c328)"><path fill="#0097b2" d="M 603.171875 349.558594 L 719.996094 187.632812 L 836.816406 349.558594 L 914.070312 349.558594 L 730.308594 94.855469 C 725.234375 87.816406 714.757812 87.816406 709.679688 94.855469 L 525.917969 349.558594 L 603.171875 349.558594 " fill-opacity="1" fill-rule="nonzero"/></g><g clip-path="url(#4d1e8f14cd)"><path fill="#ffffff" d="M 49.027344 103.5 L 292.027344 103.5 L 292.027344 346.5 L 49.027344 346.5 Z M 49.027344 103.5 " fill-opacity="1" fill-rule="nonzero"/></g></svg>